<svg width="52" height="52" viewBox="0 0 52 52" fill="none" xmlns="http://www.w3.org/2000/svg">
<mask id="mask0_1127_4233" style="mask-type:alpha" maskUnits="userSpaceOnUse" x="0" y="0" width="52" height="52">
<rect width="52" height="52" fill="#D9D9D9"/>
</mask>
<g mask="url(#mask0_1127_4233)">
<path d="M0.5 40.2474V24.1031C0.5 23.5258 0.634433 22.9583 0.903299 22.4008C1.17052 21.8449 1.55155 21.4021 2.04639 21.0722L12.4381 13.7113C13.0979 13.2577 13.8196 13.0309 14.6031 13.0309C15.3866 13.0309 16.1082 13.2577 16.768 13.7113L27.1598 21.0722C27.6546 21.4021 28.0365 21.8449 28.3054 22.4008C28.5726 22.9583 28.7062 23.5258 28.7062 24.1031V25.1546C28.3763 25.4021 28.0777 25.6594 27.8105 25.9266C27.5416 26.1955 27.2629 26.4948 26.9742 26.8247V23.0515L14.6031 14.3918L2.23196 23.0515V40.3711H9.53093V29.6082H19.6753V40.3711H22.9536C22.9948 40.701 23.0468 40.9996 23.1095 41.2668C23.1705 41.5357 23.2423 41.8144 23.3247 42.1031H17.9433V31.3402H11.2629V42.1031H2.35567C1.81959 42.1031 1.3767 41.9274 1.02701 41.5761C0.67567 41.2264 0.5 40.7835 0.5 40.2474ZM48.5 5.73196V24.0412C48.2113 23.835 47.9334 23.6602 47.6662 23.5167C47.3973 23.3715 47.0979 23.2165 46.768 23.0515V5.73196H22.5206V11.732L20.7887 10.4948V5.73196C20.7887 5.27835 20.9643 4.87588 21.3157 4.52454C21.6654 4.17485 22.067 4 22.5206 4H46.768C47.2216 4 47.6241 4.17485 47.9755 4.52454C48.3252 4.87588 48.5 5.27835 48.5 5.73196ZM37.6134 14.8866H41.0773V11.4227H37.6134V14.8866Z" fill="#444444"/>
<path d="M39.346 47.0517C36.7893 47.0517 34.6244 46.1651 32.8512 44.3919C31.078 42.6187 30.1914 40.4538 30.1914 37.8971C30.1914 35.3404 31.078 33.1754 32.8512 31.4022C34.6244 29.629 36.7893 28.7424 39.346 28.7424C41.9027 28.7424 44.0677 29.629 45.8409 31.4022C47.6141 33.1754 48.5007 35.3404 48.5007 37.8971C48.5007 40.4538 47.6141 42.6187 45.8409 44.3919C44.0677 46.1651 41.9027 47.0517 39.346 47.0517ZM38.4801 38.7631V44.0826C38.4801 44.3301 38.5625 44.5362 38.7275 44.7012C38.8924 44.8661 39.0986 44.9486 39.346 44.9486C39.5935 44.9486 39.7997 44.8661 39.9646 44.7012C40.1295 44.5362 40.212 44.3301 40.212 44.0826V38.7631H45.5316C45.779 38.7631 45.9852 38.6806 46.1502 38.5156C46.3151 38.3507 46.3976 38.1445 46.3976 37.8971C46.3976 37.6496 46.3151 37.4435 46.1502 37.2785C45.9852 37.1136 45.779 37.0311 45.5316 37.0311H40.212V31.7115C40.212 31.4641 40.1295 31.2579 39.9646 31.0929C39.7997 30.928 39.5935 30.8455 39.346 30.8455C39.0986 30.8455 38.8924 30.928 38.7275 31.0929C38.5625 31.2579 38.4801 31.4641 38.4801 31.7115V37.0311H33.1605C32.9131 37.0311 32.7069 37.1136 32.5419 37.2785C32.377 37.4435 32.2945 37.6496 32.2945 37.8971C32.2945 38.1445 32.377 38.3507 32.5419 38.5156C32.7069 38.6806 32.9131 38.7631 33.1605 38.7631H38.4801Z" fill="#FF6600"/>
</g>
</svg>
