<svg width="53" height="52" viewBox="0 0 53 52" fill="none" xmlns="http://www.w3.org/2000/svg">
<mask id="mask0_1127_4201" style="mask-type:alpha" maskUnits="userSpaceOnUse" x="0" y="0" width="53" height="52">
<rect x="0.5" width="52" height="52" fill="#D9D9D9"/>
</mask>
<g mask="url(#mask0_1127_4201)">
<path d="M5.69228 47.6149C4.62562 47.6149 3.74357 47.2662 3.04614 46.5688C2.34871 45.8714 2 44.9893 2 43.9227V18.3229C2 17.2562 2.34871 16.3742 3.04614 15.6768C3.74357 14.9793 4.62562 14.6306 5.69228 14.6306H30.0613C30.0203 14.9178 29.9899 15.1943 29.9702 15.4601C29.9489 15.7276 29.9382 16.0255 29.9382 16.3537H3.72306V43.9227C3.72306 44.497 3.90768 44.9688 4.2769 45.338C4.64613 45.7073 5.11792 45.8919 5.69228 45.8919H41.1381C41.7125 45.8919 42.1843 45.7073 42.5535 45.338C42.9227 44.9688 43.1073 44.497 43.1073 43.9227V26.7536C43.4355 26.6715 43.7334 26.5895 44.0009 26.5074C44.2667 26.4254 44.5432 26.3228 44.8304 26.1997V43.9227C44.8304 44.9893 44.4817 45.8714 43.7843 46.5688C43.0868 47.2662 42.2048 47.6149 41.1381 47.6149H5.69228ZM23.4152 28.6613L32.1536 22.8767C32.3587 23.0818 32.554 23.2968 32.7394 23.5216C32.9232 23.7481 33.1177 23.9639 33.3228 24.169L24.3998 30.0766C24.0716 30.2818 23.7434 30.3942 23.4152 30.4139C23.087 30.4352 22.7588 30.3433 22.4306 30.1382L3.72306 18.3844V16.3537L23.4152 28.6613Z" fill="#444444"/>
<path d="M42 24C39.234 24 36.8766 23.0241 34.9277 21.0723C32.9759 19.1234 32 16.766 32 14C32 11.234 32.9759 8.87518 34.9277 6.9234C36.8766 4.97447 39.234 4 42 4C44.766 4 47.1248 4.97447 49.0766 6.9234C51.0255 8.87518 52 11.234 52 14C52 16.766 51.0255 19.1234 49.0766 21.0723C47.1248 23.0241 44.766 24 42 24Z" fill="#FF6600"/>
<path d="M37.625 18.3889C37.4479 18.3889 37.2994 18.3302 37.1794 18.2129C37.0598 18.096 37 17.9509 37 17.7778C37 17.6046 37.0598 17.4596 37.1794 17.3427C37.2994 17.2253 37.4479 17.1667 37.625 17.1667H38.25V12.8889C38.25 12.0435 38.5104 11.2923 39.0312 10.6351C39.5521 9.97837 40.2292 9.54815 41.0625 9.34444V8.91667C41.0625 8.66204 41.1537 8.4457 41.3362 8.26767C41.5183 8.08922 41.7396 8 42 8C42.2604 8 42.4817 8.08922 42.6638 8.26767C42.8463 8.4457 42.9375 8.66204 42.9375 8.91667V9.34444C43.7708 9.54815 44.4479 9.97837 44.9688 10.6351C45.4896 11.2923 45.75 12.0435 45.75 12.8889V17.1667H46.375C46.5521 17.1667 46.7004 17.2253 46.82 17.3427C46.94 17.4596 47 17.6046 47 17.7778C47 17.9509 46.94 18.096 46.82 18.2129C46.7004 18.3302 46.5521 18.3889 46.375 18.3889H37.625ZM42 20.2222C41.6562 20.2222 41.3621 20.1026 41.1175 19.8635C40.8725 19.6239 40.75 19.3361 40.75 19H43.25C43.25 19.3361 43.1277 19.6239 42.8831 19.8635C42.6381 20.1026 42.3438 20.2222 42 20.2222Z" fill="white"/>
</g>
</svg>
