<svg width="85" height="70" viewBox="0 0 85 70" fill="none" xmlns="http://www.w3.org/2000/svg">
<path d="M51.8134 56.9245C57.3135 56.2733 62.7176 54.9753 67.9135 53.0574C63.5132 48.1831 61.0817 41.8472 61.0915 35.2806V33.0666C61.0915 28.3691 59.2254 23.864 55.9038 20.5424C52.5822 17.2208 48.0771 15.3547 43.3796 15.3547C38.6821 15.3547 34.177 17.2208 30.8554 20.5424C27.5338 23.864 25.6677 28.3691 25.6677 33.0666V35.2806C25.6766 41.8476 23.2441 48.1835 18.8428 53.0574C23.9585 54.9466 29.3518 56.2603 34.9458 56.9245M51.8134 56.9245C46.2105 57.5891 40.5487 57.5891 34.9458 56.9245M51.8134 56.9245C52.2388 58.2525 52.3446 59.6621 52.1221 61.0387C51.8997 62.4153 51.3553 63.7199 50.5334 64.8464C49.7114 65.9728 48.635 66.8892 47.3919 67.5209C46.1488 68.1527 44.774 68.482 43.3796 68.482C41.9852 68.482 40.6104 68.1527 39.3673 67.5209C38.1242 66.8892 37.0478 65.9728 36.2258 64.8464C35.4039 63.7199 34.8595 62.4153 34.6371 61.0387C34.4146 59.6621 34.5204 58.2525 34.9458 56.9245" stroke="white" stroke-width="2.10904" stroke-linecap="round" stroke-linejoin="round"/>
<path d="M66.0378 13.384C69.386 17.1166 71.6054 21.7233 72.4377 26.6679" stroke="white" stroke-width="2.10904" stroke-linecap="round" stroke-linejoin="round"/>
<path d="M72.2952 3.23584C77.8955 9.47925 81.6078 17.1846 83 25.4554" stroke="white" stroke-width="2.10904" stroke-linecap="round" stroke-linejoin="round"/>
<path d="M18.8428 11.8162C15.4946 15.5488 13.2753 20.1554 12.4429 25.1001" stroke="white" stroke-width="2.10904" stroke-linecap="round" stroke-linejoin="round"/>
<path d="M12.5869 1.66797C6.98658 7.91138 3.27431 15.6167 1.88203 23.8875" stroke="white" stroke-width="2.10904" stroke-linecap="round" stroke-linejoin="round"/>
</svg>
