<svg width="24" height="25" viewBox="0 0 24 25" fill="none" xmlns="http://www.w3.org/2000/svg">
<mask id="mask0_1397_3548" style="mask-type:alpha" maskUnits="userSpaceOnUse" x="0" y="0" width="24" height="25">
<rect y="0.5" width="24" height="24" fill="#D9D9D9"/>
</mask>
<g mask="url(#mask0_1397_3548)">
<path d="M18.1482 20C16.5411 20 14.9496 19.6186 13.3738 18.8558C11.7979 18.0931 10.391 17.0927 9.15313 15.8548C7.91521 14.6169 6.91354 13.2113 6.14813 11.6381C5.38271 10.0649 5 8.47477 5 6.86765C5 6.61975 5.08263 6.41317 5.2479 6.2479C5.41317 6.08263 5.61975 6 5.86765 6H8.56273C8.77674 6 8.96346 6.06595 9.1229 6.19785C9.28233 6.32974 9.38112 6.50004 9.41927 6.70875L9.89282 9.14006C9.92565 9.34346 9.92221 9.52833 9.88249 9.69465C9.84276 9.86098 9.75562 10.0061 9.62108 10.1301L7.72051 11.9877C8.37311 13.0959 9.15125 14.097 10.0549 14.9912C10.9586 15.8853 11.9815 16.665 13.1235 17.3303L14.97 15.452C15.1046 15.3175 15.2638 15.2219 15.4476 15.1652C15.6314 15.1085 15.8197 15.0966 16.0125 15.1294L18.3071 15.5966C18.5158 15.6432 18.6861 15.7441 18.818 15.8993C18.9499 16.0545 19.0159 16.2392 19.0159 16.4532V19.1323C19.0159 19.3802 18.9332 19.5868 18.768 19.7521C18.6027 19.9174 18.3961 20 18.1482 20ZM7.12621 10.815L8.60091 9.40387C8.62739 9.38267 8.64461 9.35354 8.65255 9.31646C8.6605 9.27937 8.65917 9.24494 8.64857 9.21317L8.28944 7.36662C8.27883 7.32424 8.26029 7.29246 8.23381 7.27128C8.20732 7.25008 8.17289 7.23948 8.13051 7.23948H6.36343C6.33165 7.23948 6.30516 7.25008 6.28396 7.27128C6.26278 7.29246 6.25219 7.31894 6.25219 7.35073C6.29455 7.91539 6.38699 8.48906 6.52949 9.07174C6.67198 9.65442 6.87088 10.2355 7.12621 10.815ZM14.2835 17.9087C14.8312 18.1641 15.4025 18.3593 15.9974 18.4944C16.5922 18.6294 17.1482 18.7097 17.6652 18.7351C17.6969 18.7351 17.7234 18.7245 17.7446 18.7033C17.7658 18.6821 17.7764 18.6556 17.7764 18.6238V16.8854C17.7764 16.843 17.7658 16.8086 17.7446 16.7821C17.7234 16.7556 17.6916 16.737 17.6493 16.7264L15.914 16.3737C15.8822 16.3631 15.8544 16.3618 15.8305 16.3697C15.8067 16.3776 15.7815 16.3949 15.755 16.4213L14.2835 17.9087Z" fill="white"/>
</g>
</svg>
