<svg width="24" height="24" viewBox="0 0 24 24" fill="none" xmlns="http://www.w3.org/2000/svg">
<mask id="mask0_1127_3537" style="mask-type:alpha" maskUnits="userSpaceOnUse" x="0" y="0" width="24" height="24">
<rect width="24" height="24" fill="#D9D9D9"/>
</mask>
<g mask="url(#mask0_1127_3537)">
<path d="M9.55061 17.0495C9.41728 17.0495 9.29228 17.0287 9.17561 16.9872C9.05894 16.9463 8.95061 16.8764 8.85061 16.7776L4.55061 12.5259C4.36728 12.3446 4.27961 12.1096 4.28761 11.8209C4.29628 11.5328 4.39228 11.2981 4.57561 11.1169C4.75894 10.9356 4.99228 10.845 5.27561 10.845C5.55894 10.845 5.79228 10.9356 5.97561 11.1169L9.55061 14.6517L18.0256 6.27191C18.2089 6.09064 18.4466 6 18.7386 6C19.0299 6 19.2673 6.09064 19.4506 6.27191C19.6339 6.45319 19.7256 6.68785 19.7256 6.97591C19.7256 7.26463 19.6339 7.49963 19.4506 7.68091L10.2506 16.7776C10.1506 16.8764 10.0423 16.9463 9.92561 16.9872C9.80894 17.0287 9.68394 17.0495 9.55061 17.0495Z" fill="#BBBBBB"/>
</g>
</svg>
