<svg width="58" height="41" viewBox="0 0 58 41" fill="none" xmlns="http://www.w3.org/2000/svg">
<path d="M47.691 40.3413C45.8811 40.3413 44.4935 39.5634 43.5282 38.0075C42.563 36.4492 42.5026 34.8457 43.3473 33.1971L47.0576 25.6865H39.8179C37.827 25.6865 36.1233 24.9684 34.7068 23.5322C33.2878 22.0985 32.5783 20.3741 32.5783 18.3591V7.36794C32.5783 5.3529 33.2878 3.62852 34.7068 2.19479C36.1233 0.758613 37.827 0.0405273 39.8179 0.0405273H50.6774C52.6683 0.0405273 54.3732 0.758613 55.7922 2.19479C57.2087 3.62852 57.917 5.3529 57.917 7.36794V23.9462C57.917 24.4958 57.8711 25.0612 57.7794 25.6425C57.6902 26.2214 57.4947 26.7551 57.193 27.2436L52.0348 37.5935C51.6125 38.4484 51.0092 39.1201 50.2249 39.6086C49.4406 40.0971 48.596 40.3413 47.691 40.3413ZM15.1127 40.3413C13.3028 40.3413 11.9152 39.5634 10.9499 38.0075C9.98465 36.4492 9.92432 34.8457 10.7689 33.1971L14.4792 25.6865H7.23962C5.24873 25.6865 3.545 24.9684 2.12845 23.5322C0.709483 22.0985 0 20.3741 0 18.3591V7.36794C0 5.3529 0.709483 3.62852 2.12845 2.19479C3.545 0.758613 5.24873 0.0405273 7.23962 0.0405273H18.0991C20.09 0.0405273 21.7949 0.758613 23.2139 2.19479C24.6304 3.62852 25.3387 5.3529 25.3387 7.36794V23.9462C25.3387 24.4958 25.294 25.0612 25.2048 25.6425C25.1131 26.2214 24.9164 26.7551 24.6147 27.2436L19.4565 37.5935C19.0342 38.4484 18.4309 39.1201 17.6466 39.6086C16.8623 40.0971 16.0177 40.3413 15.1127 40.3413Z" fill="#FF6600"/>
</svg>
