<svg width="204" height="32" viewBox="0 0 204 32" fill="none" xmlns="http://www.w3.org/2000/svg">
<g clip-path="url(#clip0_1132_4310)">
<mask id="mask0_1132_4310" style="mask-type:luminance" maskUnits="userSpaceOnUse" x="0" y="0" width="204" height="32">
<path d="M204 0H0V32H204V0Z" fill="white"/>
</mask>
<g mask="url(#mask0_1132_4310)">
<path d="M58.8814 12.9985H61.7574V13.5175C61.7574 15.6202 61.3731 16.9792 60.6044 17.5945C59.8357 18.2099 58.1394 18.5225 55.5154 18.5325C52.5354 18.5325 50.7017 18.0382 50.0144 17.0495C49.3271 16.0609 48.9837 13.4562 48.9844 9.23554C48.9844 6.74221 49.4491 5.10254 50.3784 4.31654C51.3077 3.53054 53.2524 3.14121 56.2124 3.14854C58.3671 3.14854 59.8064 3.47087 60.5304 4.11554C61.2544 4.76021 61.6164 6.04287 61.6164 7.96354V8.30854H58.7404V7.93754C58.7404 6.94887 58.5537 6.31621 58.1804 6.03954C57.8071 5.76287 56.9571 5.62454 55.6304 5.62454C53.8511 5.62454 52.7824 5.84187 52.4244 6.27654C52.0664 6.71121 51.8897 7.99621 51.8944 10.1315C51.8944 13.0255 52.0551 14.7382 52.3764 15.2695C52.6977 15.8009 53.7367 16.0665 55.4934 16.0665C56.9167 16.0665 57.8411 15.9195 58.2664 15.6255C58.6917 15.3315 58.9044 14.6815 58.9044 13.6755L58.8814 12.9985Z" fill="#455A64"/>
<path d="M55.5158 18.6628C52.4578 18.6628 50.6227 18.1658 49.8997 17.1428C49.1767 16.1198 48.8438 13.5548 48.8438 9.24777C48.8438 6.72377 49.3298 5.03277 50.2898 4.22177C51.2498 3.41077 53.1918 3.00977 56.2208 3.00977C58.4448 3.00977 59.8718 3.33977 60.6318 4.01477C61.3918 4.68977 61.7628 6.01277 61.7628 7.96577V8.44777H58.6007V7.92177C58.6007 6.98377 58.4308 6.38377 58.0968 6.13477C57.7628 5.88577 56.9178 5.76377 55.6278 5.76377C53.4778 5.76377 52.7548 6.08977 52.5288 6.36777C52.3028 6.64577 52.0247 7.53177 52.0247 10.1528C52.0247 13.0068 52.1808 14.7088 52.4848 15.2158C52.6848 15.5498 53.3708 15.9568 55.4838 15.9568C56.8738 15.9568 57.7778 15.8158 58.1788 15.5378C58.5798 15.2598 58.7568 14.6558 58.7568 13.7028L58.7308 12.8878H61.9038V13.5478C61.9038 15.7158 61.5108 17.0838 60.6988 17.7368C59.8868 18.3898 58.1968 18.6638 55.5168 18.6638L55.5158 18.6628ZM56.2128 3.28777C53.3028 3.28777 51.3678 3.65877 50.4678 4.43277C49.5678 5.20677 49.1217 6.80477 49.1217 9.25177C49.1217 13.4408 49.4588 16.0428 50.1268 16.9878C50.7948 17.9328 52.5958 18.3888 55.5168 18.3888C58.1118 18.3888 59.7828 18.0888 60.5208 17.4958C61.2588 16.9028 61.6328 15.5758 61.6328 13.5258V13.1548H59.0378V13.6848C59.0378 14.7528 58.8118 15.4268 58.3408 15.7528C57.8698 16.0788 56.9548 16.2198 55.4908 16.2198C53.6668 16.2198 52.6068 15.9378 52.2548 15.3558C51.9028 14.7738 51.7548 13.0948 51.7548 10.1668C51.7548 7.96477 51.9398 6.67177 52.3218 6.20477C52.7038 5.73777 53.8048 5.50077 55.6318 5.50077C57.0028 5.50077 57.8558 5.64577 58.2668 5.94177C58.6778 6.23777 58.8818 6.90577 58.8818 7.95077V8.15477H61.4768V7.95477C61.4768 6.08277 61.1288 4.82277 60.4388 4.20777C59.7488 3.59277 58.3218 3.28777 56.2128 3.28777Z" fill="#455A64"/>
<path d="M69.8387 3.15039C72.584 3.15039 74.351 3.60639 75.1397 4.51839C75.9284 5.43039 76.3237 7.46906 76.3257 10.6344C76.3257 14.0937 75.929 16.2744 75.1357 17.1764C74.3424 18.0784 72.4224 18.5307 69.3757 18.5334C66.6304 18.5334 64.856 18.0887 64.0527 17.1994C63.2494 16.3101 62.8477 14.3531 62.8477 11.3284C62.8477 7.72772 63.243 5.46539 64.0337 4.54139C64.8244 3.61739 66.7594 3.15306 69.8387 3.15039ZM69.6167 5.60739C67.6914 5.60739 66.5657 5.85439 66.2397 6.34839C65.9137 6.84239 65.7517 8.55606 65.7537 11.4894C65.7537 13.6594 65.944 14.9654 66.3247 15.4074C66.7054 15.8494 67.826 16.0681 69.6867 16.0634C71.466 16.0634 72.5324 15.8164 72.8857 15.3224C73.239 14.8284 73.4157 13.3174 73.4157 10.7894C73.4157 8.25872 73.2477 6.76239 72.9117 6.30039C72.5757 5.83839 71.4774 5.60606 69.6167 5.60339V5.60739Z" fill="#455A64"/>
<path d="M69.3741 18.6637C66.5611 18.6637 64.7851 18.2117 63.9471 17.2847C63.1091 16.3577 62.7051 14.4087 62.7051 11.3207C62.7051 7.65067 63.1021 5.38967 63.9251 4.44467C64.7481 3.49967 66.6861 3.01367 69.8561 3.01367C72.6691 3.01367 74.4381 3.47667 75.2641 4.42967C76.0901 5.38267 76.4831 7.39467 76.4831 10.6347C76.4831 14.1637 76.0831 16.3317 75.2601 17.2697C74.4371 18.2077 72.4911 18.6637 69.3741 18.6637ZM69.8371 3.28867C66.8091 3.28867 64.8891 3.73767 64.1321 4.62267C63.3751 5.50767 62.9831 7.76567 62.9831 11.3167C62.9831 14.2817 63.3761 16.2357 64.1541 17.0957C64.9321 17.9557 66.6861 18.3857 69.3771 18.3857C72.3681 18.3857 74.2741 17.9487 75.0331 17.0807C75.7921 16.2127 76.1891 14.0407 76.1891 10.6307C76.1891 7.51367 75.8181 5.48567 75.0401 4.60767C74.2621 3.72967 72.5271 3.28767 69.8361 3.28767L69.8371 3.28867ZM69.6851 16.2067C67.7651 16.2067 66.6311 15.9727 66.2191 15.4947C65.8071 15.0167 65.6071 13.7157 65.6071 11.4917C65.6071 8.50767 65.7741 6.80267 66.1191 6.27967C66.4641 5.75667 67.6021 5.47567 69.6111 5.47567C71.5351 5.47567 72.6511 5.72067 73.0171 6.21667C73.3831 6.71267 73.5471 8.20367 73.5471 10.7867C73.5471 13.3697 73.3651 14.8637 72.9911 15.4017C72.6171 15.9397 71.5381 16.2067 69.6851 16.2067ZM69.6181 5.74567C67.2941 5.74567 66.5601 6.11667 66.3601 6.42367C66.1601 6.73067 65.8971 7.88367 65.8971 11.4837C65.8971 14.1307 66.1901 15.0277 66.4341 15.3127C66.6781 15.5977 67.4311 15.9387 69.6851 15.9387C71.8311 15.9387 72.5471 15.5677 72.7691 15.2497C73.1061 14.7787 73.2731 13.2817 73.2731 10.8017C73.2731 7.70267 73.0141 6.69467 72.7951 6.39467C72.5761 6.09467 71.8651 5.74567 69.6151 5.74567H69.6181Z" fill="#455A64"/>
<path d="M78.2637 18.3932V3.28125H85.7137C87.567 3.28125 88.8434 3.60258 89.5427 4.24525C90.242 4.88792 90.593 6.05058 90.5957 7.73325C90.5957 9.26058 90.4204 10.3046 90.0697 10.8652C89.719 11.4259 89.001 11.8139 87.9157 12.0293V12.1292C89.591 12.2332 90.4287 13.2106 90.4287 15.0612V18.3972H87.5637V15.6362C87.5637 14.0796 86.7964 13.3012 85.2617 13.3012H81.1287V18.3942L78.2637 18.3932ZM81.1297 10.8872H85.2557C86.2444 10.8872 86.8954 10.7119 87.2087 10.3612C87.522 10.0106 87.6827 9.30758 87.6907 8.25225C87.6907 7.17492 87.5524 6.47925 87.2757 6.16525C86.999 5.85125 86.3924 5.69425 85.4557 5.69425H81.1297V10.8872Z" fill="#455A64"/>
<path d="M90.566 18.5345H87.423V15.6355C87.423 14.1525 86.715 13.4375 85.258 13.4375H81.27V18.5345H78.127V3.14453H85.715C87.594 3.14453 88.914 3.48153 89.64 4.14553C90.366 4.80953 90.752 6.02153 90.752 7.73353C90.752 9.30153 90.574 10.3505 90.203 10.9395C89.783 11.5045 89.171 11.9065 88.464 12.0485L88.446 12.0515C89.866 12.3185 90.585 13.3265 90.585 15.0615L90.566 18.5345ZM87.701 18.2565H90.296V15.0615C90.296 13.2785 89.518 12.3665 87.913 12.2665H87.783V11.9215L87.894 11.8995C88.936 11.6955 89.629 11.3245 89.955 10.7875C90.281 10.2505 90.444 9.22653 90.444 7.73353C90.444 6.09853 90.107 4.96053 89.436 4.34953C88.765 3.73853 87.509 3.42253 85.7 3.42253H78.401V18.2495H80.996V13.1605H85.255C86.875 13.1605 87.698 13.9945 87.698 15.6365L87.701 18.2565ZM85.254 11.0245H80.991V5.56053H85.439C86.429 5.56053 87.055 5.73053 87.363 6.07953C87.671 6.42853 87.811 7.13553 87.811 8.25953C87.811 9.38353 87.64 10.0835 87.292 10.4615C86.944 10.8395 86.277 11.0245 85.254 11.0245ZM81.27 10.7495H85.255C86.193 10.7495 86.816 10.5865 87.108 10.2675C87.4 9.94853 87.553 9.26653 87.553 8.25153C87.553 7.23653 87.423 6.54253 87.182 6.25753C86.941 5.97253 86.355 5.83453 85.466 5.83453H81.27V10.7495Z" fill="#455A64"/>
<path d="M106.897 3.2793V18.3913H102.038L97.7232 10.0993C97.5085 9.68663 97.1725 8.96396 96.7152 7.9313L96.2292 6.8453L95.7552 5.7593H95.6332L95.6772 6.7563L95.7102 7.7423L95.7322 9.7253V18.3913H92.8672V3.2793H97.7262L101.655 10.9373C102.001 11.6166 102.403 12.4396 102.86 13.4063L103.435 14.6333L104.01 15.8713H104.11L104.043 13.9213L104.021 11.9713V3.2793H106.897Z" fill="#455A64"/>
<path d="M107.038 18.5336H101.952L97.5974 10.1636C97.3824 9.74858 97.0414 9.01858 96.5854 7.98758L95.7994 6.21958L95.8554 7.73958L95.8774 9.72258V18.5336H92.7344V3.14358H97.8164L101.786 10.8796C102.131 11.5546 102.527 12.3886 102.994 13.3516L103.965 15.4306L103.913 13.9476L103.891 11.9976V3.14258H107.034L107.038 18.5336ZM102.122 18.2556H106.752V3.42858H104.157V11.9916L104.179 13.9376L104.249 16.0286H103.915L102.725 13.4826C102.269 12.5186 101.865 11.6926 101.52 11.0176L97.6474 3.42258H93.0104V18.2496H95.6054V9.72458L95.5834 7.74558L95.4984 5.62558H95.8464L96.8434 7.87558C97.2954 8.89858 97.6334 9.63958 97.8554 10.0406L102.122 18.2556Z" fill="#455A64"/>
<path d="M112.123 5.69425V9.59325H119.207V11.7063H112.123V15.9802H119.662V18.3932H109.254V3.28125H119.592V5.69425H112.123Z" fill="#455A64"/>
<path d="M119.8 18.5345H109.117V3.14453H119.726V5.83553H112.261V9.45353H119.356V11.8625H112.261V15.8395H119.8V18.5345ZM109.395 18.2565H119.522V16.1175H111.983V11.5655H119.067V9.71253H111.983V5.56053H119.456V3.42153H109.396L109.395 18.2565Z" fill="#455A64"/>
<path d="M121.799 18.3932V3.28125H129.249C131.102 3.28125 132.379 3.60258 133.078 4.24525C133.777 4.88792 134.128 6.05058 134.131 7.73325C134.131 9.26058 133.956 10.3046 133.605 10.8652C133.254 11.4259 132.536 11.8139 131.451 12.0293V12.1292C133.126 12.2332 133.964 13.2106 133.964 15.0612V18.3972H131.099V15.6362C131.099 14.0796 130.332 13.3012 128.797 13.3012H124.664V18.3942L121.799 18.3932ZM124.664 10.8872H128.782C129.771 10.8872 130.422 10.7119 130.735 10.3612C131.048 10.0106 131.209 9.30758 131.217 8.25225C131.217 7.17492 131.079 6.47925 130.802 6.16525C130.525 5.85125 129.922 5.69425 128.993 5.69425H124.664V10.8872Z" fill="#455A64"/>
<path d="M134.101 18.5345H130.958V15.6355C130.958 14.1525 130.25 13.4375 128.793 13.4375H124.801V18.5345H121.658V3.14453H129.246C131.125 3.14453 132.445 3.48153 133.171 4.14553C133.897 4.80953 134.283 6.02153 134.283 7.73353C134.283 9.30153 134.105 10.3505 133.734 10.9395C133.314 11.5045 132.702 11.9065 131.995 12.0485L131.977 12.0515C133.397 12.3185 134.116 13.3265 134.116 15.0615L134.101 18.5345ZM131.217 18.2525H133.812V15.0615C133.812 13.2785 133.034 12.3665 131.429 12.2665H131.299V11.9215L131.41 11.8995C132.452 11.6955 133.145 11.3245 133.471 10.7875C133.797 10.2505 133.975 9.22353 133.975 7.72953C133.975 6.09453 133.638 4.95653 132.967 4.34553C132.296 3.73453 131.039 3.41853 129.231 3.41853H121.951V18.2455H124.546V13.1595H128.812C130.432 13.1595 131.255 13.9935 131.255 15.6355L131.217 18.2525ZM128.764 11.0245H124.524V5.56053H128.972C129.962 5.56053 130.588 5.73053 130.896 6.07953C131.204 6.42853 131.344 7.13553 131.344 8.25953C131.344 9.38353 131.173 10.0835 130.825 10.4615C130.477 10.8395 129.813 11.0245 128.783 11.0245H128.764ZM124.801 10.7495H128.778C129.716 10.7495 130.339 10.5865 130.631 10.2675C130.923 9.94853 131.076 9.26653 131.076 8.25153C131.076 7.23653 130.946 6.54253 130.705 6.25753C130.464 5.97253 129.878 5.83453 128.989 5.83453H124.8L124.801 10.7495Z" fill="#455A64"/>
<path d="M147.62 7.68734H144.821C144.806 7.54668 144.799 7.44301 144.799 7.37634C144.732 6.52901 144.545 5.99534 144.236 5.77534C143.927 5.55534 143.197 5.44668 142.045 5.44934C140.688 5.44934 139.801 5.57301 139.384 5.82034C138.967 6.06768 138.757 6.59901 138.754 7.41434C138.754 8.36568 138.923 8.93768 139.262 9.13034C139.601 9.32301 140.723 9.47001 142.628 9.57134C144.879 9.69734 146.335 10.0187 146.995 10.5353C147.655 11.052 147.985 12.1257 147.985 13.7563C147.985 15.763 147.597 17.0603 146.821 17.6483C146.045 18.2363 144.339 18.5317 141.702 18.5343C139.325 18.5343 137.747 18.2463 136.969 17.6703C136.191 17.0943 135.802 15.928 135.801 14.1713V13.6193H138.592V13.9413C138.592 14.9967 138.776 15.643 139.144 15.8803C139.512 16.1177 140.519 16.2413 142.165 16.2513C143.45 16.2513 144.27 16.1153 144.623 15.8433C144.976 15.5713 145.153 14.94 145.153 13.9493C145.153 13.208 145.018 12.7223 144.749 12.4923C144.48 12.2623 143.899 12.1167 143.007 12.0553L141.424 11.9553C139.032 11.8147 137.505 11.4823 136.842 10.9583C136.179 10.4343 135.847 9.30868 135.845 7.58134C135.845 5.81668 136.245 4.64168 137.046 4.05634C137.847 3.47101 139.447 3.16968 141.846 3.15234C144.119 3.15234 145.65 3.42168 146.439 3.96034C147.228 4.49901 147.623 5.55034 147.625 7.11434L147.62 7.68734Z" fill="#455A64"/>
<path d="M141.699 18.6626C139.271 18.6626 137.696 18.3696 136.88 17.7726C136.064 17.1756 135.664 15.9376 135.664 14.1626V13.4696H138.729V13.9256C138.729 14.9156 138.9 15.5456 139.218 15.7496C139.455 15.9016 140.159 16.0836 142.183 16.0836C143.428 16.0836 144.229 15.9536 144.555 15.7126C144.881 15.4716 145.033 14.8676 145.033 13.9296C145.033 13.2436 144.914 12.7876 144.662 12.5766C144.495 12.4286 144.069 12.2356 143.001 12.1726L141.418 12.0726C138.975 11.9276 137.452 11.5946 136.759 11.0456C136.066 10.4966 135.71 9.34758 135.71 7.56158C135.71 5.77558 136.133 4.53658 136.967 3.92558C137.801 3.31458 139.395 3.01758 141.849 3.01758C144.173 3.01758 145.7 3.28858 146.519 3.85158C147.338 4.41458 147.764 5.51558 147.764 7.12058V7.83558H144.699V7.70958C144.699 7.56158 144.677 7.45358 144.677 7.38358C144.614 6.59358 144.443 6.08958 144.173 5.90058C143.977 5.76358 143.45 5.60058 142.06 5.60058C140.733 5.60058 139.862 5.71958 139.465 5.97158C139.068 6.22358 138.89 6.67258 138.89 7.41358C138.89 8.52558 139.127 8.89658 139.327 9.00758C139.527 9.11858 140.298 9.30458 142.63 9.43358C144.962 9.56258 146.385 9.88558 147.078 10.4266C147.771 10.9676 148.123 12.0876 148.123 13.7626C148.123 15.8346 147.726 17.1436 146.907 17.7656C146.088 18.3876 144.394 18.6626 141.695 18.6626H141.699ZM135.928 13.7476V14.1586C135.928 15.8636 136.299 17.0016 137.04 17.5466C137.781 18.0916 139.372 18.3846 141.699 18.3846C144.294 18.3846 145.995 18.0996 146.74 17.5316C147.485 16.9636 147.852 15.7046 147.852 13.7506C147.852 12.1716 147.537 11.1266 146.914 10.6406C146.291 10.1546 144.838 9.82858 142.625 9.70658C140.683 9.60258 139.56 9.45058 139.2 9.24658C138.84 9.04258 138.629 8.42358 138.629 7.41158C138.629 6.55858 138.863 5.98458 139.322 5.71058C139.781 5.43658 140.66 5.31358 142.058 5.31358C143.248 5.31358 143.993 5.42858 144.33 5.66558C144.667 5.90258 144.882 6.46658 144.953 7.36658C144.953 7.41458 144.953 7.47358 144.953 7.54858H147.488V7.11158C147.488 5.60258 147.117 4.57958 146.376 4.07158C145.635 3.56358 144.093 3.28958 141.861 3.28958C139.504 3.28958 137.917 3.57458 137.146 4.14258C136.375 4.71058 136.001 5.84758 136.001 7.55658C136.001 9.26558 136.32 10.3296 136.946 10.8226C137.572 11.3156 139.1 11.6526 141.45 11.7896L143.033 11.8896C143.967 11.9456 144.564 12.0976 144.86 12.3606C145.156 12.6236 145.312 13.1386 145.312 13.9216C145.312 14.9666 145.119 15.6196 144.726 15.9236C144.333 16.2276 143.51 16.3606 142.183 16.3606C140.496 16.3606 139.481 16.2386 139.088 15.9896C138.695 15.7406 138.469 15.0516 138.469 13.9366V13.7546L135.928 13.7476Z" fill="#455A64"/>
<path d="M155.999 5.84925V18.3932H153.134V5.85025H148.771V3.28125H160.499V5.85025L155.999 5.84925Z" fill="#455A64"/>
<path d="M156.139 18.5345H152.996V5.99153H148.641V3.14453H160.662V5.99153H156.14L156.139 18.5345ZM153.273 18.2565H155.868V5.71353H160.383V3.42253H148.911V5.71353H153.274L153.273 18.2565Z" fill="#455A64"/>
<path d="M168.244 3.15043C170.989 3.15043 172.756 3.60643 173.545 4.51843C174.334 5.43043 174.729 7.46909 174.731 10.6344C174.731 14.0938 174.334 16.2744 173.541 17.1764C172.748 18.0784 170.826 18.5308 167.777 18.5334C165.032 18.5334 163.257 18.0888 162.454 17.1994C161.651 16.3101 161.247 14.3491 161.242 11.3164C161.242 7.71576 161.637 5.45343 162.428 4.52943C163.219 3.60543 165.157 3.14576 168.244 3.15043ZM168.021 5.60743C166.096 5.60743 164.97 5.85443 164.644 6.34843C164.318 6.84243 164.156 8.55609 164.158 11.4894C164.158 13.6594 164.348 14.9654 164.729 15.4074C165.11 15.8494 166.229 16.0704 168.087 16.0704C169.866 16.0704 170.933 15.8234 171.286 15.3294C171.639 14.8354 171.816 13.3244 171.816 10.7964C171.816 8.26576 171.648 6.76943 171.312 6.30743C170.976 5.84543 169.879 5.61076 168.02 5.60343L168.021 5.60743Z" fill="#455A64"/>
<path d="M167.776 18.6637C164.963 18.6637 163.187 18.2117 162.349 17.2847C161.511 16.3577 161.107 14.4087 161.107 11.3207C161.107 7.65067 161.504 5.38967 162.327 4.44467C163.15 3.49967 165.089 3.01367 168.258 3.01367C171.071 3.01367 172.84 3.47667 173.666 4.42967C174.492 5.38267 174.886 7.39467 174.886 10.6347C174.886 14.1637 174.486 16.3317 173.663 17.2697C172.84 18.2077 170.879 18.6637 167.777 18.6637H167.776ZM168.239 3.28867C165.211 3.28867 163.291 3.73767 162.534 4.62267C161.777 5.50767 161.385 7.76567 161.385 11.3167C161.385 14.2817 161.778 16.2357 162.556 17.0957C163.334 17.9557 165.084 18.3857 167.779 18.3857C170.77 18.3857 172.676 17.9487 173.435 17.0807C174.194 16.2127 174.591 14.0407 174.591 10.6307C174.591 7.51367 174.22 5.48567 173.442 4.60767C172.664 3.72967 170.933 3.28767 168.241 3.28767L168.239 3.28867ZM168.083 16.2067C166.163 16.2067 165.029 15.9727 164.617 15.4947C164.205 15.0167 164.016 13.7157 164.016 11.4917C164.016 8.50767 164.183 6.80267 164.528 6.27967C164.873 5.75667 166.011 5.47567 168.02 5.47567C169.944 5.47567 171.06 5.72067 171.426 6.21667C171.792 6.71267 171.956 8.20367 171.956 10.7867C171.956 13.3697 171.774 14.8637 171.4 15.4017C171.026 15.9397 169.928 16.2057 168.086 16.2057L168.083 16.2067ZM168.017 5.74567C165.693 5.74567 164.959 6.11667 164.759 6.42367C164.559 6.73067 164.296 7.88367 164.296 11.4837C164.296 14.1307 164.589 15.0277 164.833 15.3127C165.077 15.5977 165.834 15.9277 168.088 15.9277C170.234 15.9277 170.95 15.5567 171.172 15.2387C171.509 14.7677 171.676 13.2707 171.676 10.7907C171.676 7.69167 171.417 6.68367 171.198 6.38367C170.979 6.08367 170.268 5.74567 168.021 5.74567H168.017Z" fill="#455A64"/>
<path d="M190.692 3.2793V18.3913H185.833L181.515 10.0993C181.3 9.68663 180.964 8.96396 180.507 7.9313L180.021 6.8453L179.547 5.7593H179.436L179.48 6.7563L179.513 7.7423L179.535 9.7253V18.3913H176.67V3.2793H181.529L185.458 10.9373C185.804 11.6166 186.206 12.4396 186.663 13.4063L187.238 14.6333L187.813 15.8713H187.932L187.865 13.9213L187.843 11.9713V3.2793H190.692Z" fill="#455A64"/>
<path d="M190.829 18.5336H185.747L181.392 10.1636C181.177 9.74858 180.836 9.01458 180.38 7.98758L179.594 6.21958L179.65 7.73958L179.672 9.72258V18.5336H176.529V3.14358H181.629L185.599 10.8796C185.944 11.5546 186.34 12.3886 186.807 13.3516L187.778 15.4306L187.726 13.9476L187.704 11.9976V3.14258H190.847L190.829 18.5336ZM185.914 18.2556H190.551V3.42858H187.956V11.9916L187.978 13.9376L188.048 16.0286H187.714L186.524 13.4826C186.068 12.5186 185.664 11.6926 185.319 11.0176L181.438 3.42258H176.808V18.2496H179.403V9.72458L179.381 7.74558L179.296 5.62558H179.644L180.645 7.87558C181.086 8.89858 181.423 9.63958 181.627 10.0406L185.914 18.2556Z" fill="#455A64"/>
<path d="M195.913 5.69425V9.59325H202.997V11.7063H195.913V15.9802H203.452V18.3932H193.047V3.28125H203.385V5.69425H195.913Z" fill="#455A64"/>
<path d="M203.591 18.5345H192.908V3.14453H203.524V5.83553H196.055V9.45353H203.127V11.8625H196.055V15.8395H203.594L203.591 18.5345ZM193.186 18.2565H203.313V16.1175H195.777V11.5655H202.861V9.71253H195.777V5.56053H203.25V3.42153H193.186V18.2565Z" fill="#455A64"/>
<path d="M49.2988 28.6499V21.1289H52.7388C53.5861 21.1289 54.1645 21.2919 54.4738 21.6179C54.7831 21.9439 54.9375 22.5556 54.9368 23.4529C54.9368 24.3129 54.7761 24.8986 54.4548 25.2099C54.1335 25.5212 53.5305 25.6769 52.6458 25.6769H50.1478V28.6419L49.2988 28.6499ZM50.1478 24.9729H52.1568C52.9968 24.9729 53.5355 24.8866 53.7728 24.7139C54.0101 24.5412 54.1338 24.1446 54.1438 23.5239C54.1438 22.7972 54.0635 22.3376 53.9028 22.1449C53.7421 21.9522 53.3605 21.8609 52.7578 21.8709H50.1628L50.1478 24.9729Z" fill="#455A64"/>
<path d="M50.2936 28.786H49.1816V21.002H52.7626C53.6596 21.002 54.2456 21.176 54.6156 21.536C54.9856 21.896 55.1156 22.522 55.1156 23.463C55.1156 24.404 54.9456 24.975 54.5926 25.316C54.2396 25.657 53.6176 25.824 52.6876 25.824H50.3266L50.2936 28.786ZM49.4446 28.508H50.0156V25.543H52.6366C53.4816 25.543 54.0566 25.398 54.3486 25.113C54.6406 24.828 54.7896 24.272 54.7896 23.456C54.7896 22.64 54.6446 22.018 54.3636 21.718C54.0826 21.418 53.5336 21.273 52.7286 21.273H49.4486L49.4446 28.508ZM52.1616 25.109H50.0116V21.71H52.7586C53.4036 21.71 53.8116 21.821 54.0006 22.047C54.1896 22.273 54.2716 22.748 54.2716 23.53C54.2716 24.205 54.1386 24.642 53.8606 24.831C53.5826 25.02 53.0456 25.109 52.1666 25.109H52.1616ZM50.3076 24.831H52.1606C53.1656 24.831 53.5506 24.705 53.6956 24.597C53.8406 24.489 53.9926 24.082 53.9926 23.522C53.9926 22.662 53.8816 22.343 53.7846 22.232C53.6876 22.121 53.4436 21.995 52.7546 21.995H50.2896L50.3076 24.831Z" fill="#455A64"/>
<path d="M57.4922 28.6499V21.1289H61.0692C61.8772 21.1289 62.4455 21.2882 62.7742 21.6069C63.1029 21.9256 63.2685 22.4802 63.2712 23.2709C63.2792 23.3479 63.2832 23.4379 63.2832 23.5289C63.2832 23.9629 63.1842 24.3739 63.0082 24.7409L63.0152 24.7239C62.7682 25.0299 62.4022 25.2319 61.9892 25.2579H61.9852C62.7812 25.3172 63.1792 25.8016 63.1792 26.7109V28.6309H62.3302V26.9189C62.3302 26.0416 61.9509 25.6029 61.1922 25.6029H58.3532V28.6459L57.4922 28.6499ZM58.3412 24.8919H60.7912C60.8552 24.8989 60.9302 24.9029 61.0052 24.9029C61.4132 24.9029 61.7952 24.7889 62.1202 24.5899L62.1112 24.5949C62.3462 24.3459 62.4902 24.0089 62.4902 23.6379C62.4902 23.5829 62.4872 23.5299 62.4812 23.4769L62.4822 23.4829C62.4822 22.8036 62.3945 22.3612 62.2192 22.1559C62.0439 21.9506 61.6732 21.8479 61.1072 21.8479H58.3642L58.3412 24.8919Z" fill="#455A64"/>
<path d="M63.3059 28.7866H62.1939V26.9336C62.1939 26.1296 61.8749 25.7586 61.1929 25.7586H58.4909V28.8016H57.3789V21.0176H61.0859C61.9269 21.0176 62.5349 21.1916 62.8869 21.5366C63.2389 21.8816 63.4239 22.4746 63.4239 23.2976C63.4299 23.3696 63.4339 23.4526 63.4339 23.5366C63.4339 24.0056 63.3219 24.4496 63.1239 24.8416L63.1319 24.8246C62.9849 25.0326 62.7799 25.1906 62.5399 25.2776L62.5309 25.2806C62.9569 25.4626 63.3209 25.8736 63.3209 26.7636L63.3059 28.7866ZM62.4569 28.5086H63.0129V26.7256C63.0129 25.8846 62.6759 25.4656 61.9449 25.4096H61.8149V25.1616L61.9339 25.1286C62.3099 25.1066 62.6409 24.9286 62.8659 24.6596L62.8679 24.6576C63.0309 24.3206 63.1259 23.9246 63.1259 23.5066C63.1259 23.4276 63.1229 23.3496 63.1159 23.2726L63.1169 23.2826C63.1169 22.5416 62.9649 22.0116 62.6649 21.7186C62.3649 21.4256 61.8199 21.2776 61.0559 21.2776H57.6159V28.5096H58.1939V25.4666H61.1589C61.7409 25.4666 62.4379 25.7186 62.4379 26.9196L62.4569 28.5086ZM60.7889 25.0286H58.1939V21.7116H61.0739C61.6969 21.7116 62.0969 21.8306 62.3009 22.0826C62.5049 22.3346 62.5939 22.7796 62.5939 23.4986C62.5939 24.0916 62.4639 24.4886 62.1939 24.7146C61.9239 24.9406 61.4709 25.0286 60.7889 25.0286ZM58.4799 24.7506H60.7889C60.8519 24.7576 60.9239 24.7616 60.9979 24.7616C61.3739 24.7616 61.7269 24.6596 62.0289 24.4826L62.0189 24.4876C62.2139 24.2636 62.3329 23.9686 62.3329 23.6456C62.3329 23.5896 62.3289 23.5346 62.3219 23.4806L62.3229 23.4866C62.3229 22.6856 62.2009 22.3746 62.0929 22.2486C61.9849 22.1226 61.7219 21.9896 61.0769 21.9896H58.4819L58.4799 24.7506Z" fill="#455A64"/>
<path d="M68.7958 21.0541C70.2165 21.0541 71.1048 21.2617 71.4608 21.6771C71.8168 22.0924 71.9948 23.1291 71.9948 24.7871C71.9948 26.5737 71.8241 27.6771 71.4828 28.0971C71.1415 28.5171 70.2458 28.7257 68.7958 28.7231C67.3525 28.7231 66.4578 28.5154 66.1118 28.1001C65.7658 27.6847 65.5978 26.6134 65.6078 24.8861V23.6481C65.6078 22.6594 65.8328 21.9774 66.2828 21.6021C66.7328 21.2267 67.5705 21.0447 68.7958 21.0541ZM68.7958 21.7701C67.6071 21.7701 66.9115 21.9024 66.7088 22.1671C66.5061 22.4317 66.4048 23.3387 66.4048 24.8881C66.4048 26.4401 66.5061 27.3481 66.7088 27.6121C66.9115 27.8761 67.6071 28.0084 68.7958 28.0091C69.9891 28.0091 70.6861 27.8767 70.8868 27.6121C71.0875 27.3474 71.1888 26.4394 71.1908 24.8881V23.6871C71.1908 22.8571 71.0511 22.3307 70.7718 22.1081C70.4925 21.8854 69.8315 21.7741 68.7888 21.7741L68.7958 21.7701Z" fill="#455A64"/>
<path d="M68.7961 28.864C67.3131 28.864 66.3831 28.645 66.0051 28.193C65.6271 27.741 65.4531 26.666 65.4531 24.89V23.648C65.4531 22.614 65.6981 21.887 66.1941 21.494C66.6901 21.101 67.5251 20.916 68.7891 20.916C70.2721 20.916 71.1721 21.135 71.5581 21.587C71.9441 22.039 72.1251 23.07 72.1251 24.79C72.1251 26.643 71.9471 27.755 71.5801 28.185C71.2131 28.615 70.3051 28.864 68.7961 28.864ZM68.7961 21.195C67.6021 21.195 66.7871 21.369 66.3641 21.71C65.9411 22.051 65.7411 22.7 65.7411 23.649V24.887C65.7411 26.574 65.9041 27.626 66.2301 28.012C66.5561 28.398 67.4161 28.583 68.8251 28.583C70.2341 28.583 71.0941 28.39 71.4201 28.005C71.7461 27.62 71.9021 26.522 71.9021 24.784C71.9021 23.168 71.7351 22.152 71.4021 21.763C71.0691 21.374 70.1681 21.195 68.7961 21.195ZM68.7961 28.149C67.5321 28.149 66.8351 28.004 66.5981 27.697C66.4571 27.512 66.2681 27.019 66.2681 24.887C66.2681 22.755 66.4571 22.27 66.5981 22.085C66.8321 21.777 67.5321 21.633 68.7961 21.633C69.8751 21.633 70.5461 21.752 70.8531 22.004C71.1601 22.256 71.3241 22.812 71.3241 23.694V24.895C71.3241 27.026 71.1351 27.519 70.9941 27.705C70.7571 28.005 70.0561 28.15 68.7881 28.15L68.7961 28.149ZM68.7961 21.91C67.3131 21.91 66.9171 22.125 66.8201 22.251C66.7231 22.377 66.5461 22.992 66.5461 24.886C66.5461 26.78 66.6941 27.362 66.8201 27.525C66.9461 27.688 67.3061 27.866 68.7961 27.866C70.2861 27.866 70.6791 27.651 70.7791 27.525C70.8791 27.399 71.0531 26.784 71.0531 24.886V23.689C71.0531 22.714 70.8531 22.351 70.6821 22.206C70.5111 22.061 70.0331 21.909 68.7881 21.909L68.7961 21.91Z" fill="#455A64"/>
<path d="M74.5039 28.6499V21.1289H77.9439C78.7912 21.1289 79.3696 21.2919 79.6789 21.6179C79.9882 21.9439 80.1426 22.5556 80.1419 23.4529C80.1419 24.3129 79.9812 24.8986 79.6599 25.2099C79.3386 25.5212 78.7319 25.6782 77.8399 25.6809H75.3419V28.6459L74.5039 28.6499ZM75.3529 24.9729H77.3619C78.2019 24.9729 78.7406 24.8866 78.9779 24.7139C79.2152 24.5412 79.3389 24.1446 79.3489 23.5239C79.3489 22.7972 79.2686 22.3376 79.1079 22.1449C78.9472 21.9522 78.5606 21.8609 77.9479 21.8709H75.3529V24.9729Z" fill="#455A64"/>
<path d="M75.4831 28.786H74.3711V21.002H77.9521C78.8491 21.002 79.4351 21.176 79.8051 21.536C80.1751 21.896 80.3051 22.522 80.3051 23.463C80.3051 24.404 80.1341 24.975 79.7821 25.316C79.4301 25.657 78.8071 25.824 77.8771 25.824H75.5161L75.4831 28.786ZM74.6351 28.508H75.2061V25.543H77.8411C78.6861 25.543 79.2611 25.398 79.5541 25.113C79.8471 24.828 79.9951 24.272 79.9951 23.456C79.9951 22.64 79.8501 22.018 79.5691 21.718C79.2881 21.418 78.7391 21.273 77.9341 21.273H74.6311L74.6351 28.508ZM77.3521 25.109H75.2021V21.71H77.9491C78.5941 21.71 79.0021 21.821 79.1911 22.047C79.3801 22.273 79.4621 22.736 79.4621 23.53C79.4621 24.205 79.3291 24.642 79.0511 24.831C78.7731 25.02 78.2361 25.109 77.3571 25.109H77.3521ZM75.4981 24.831H77.3511C78.3561 24.831 78.7411 24.705 78.8861 24.597C79.0311 24.489 79.1831 24.082 79.1831 23.522C79.1831 22.662 79.0721 22.343 78.9751 22.232C78.8781 22.121 78.6341 21.995 77.9451 21.995H75.4801L75.4981 24.831Z" fill="#455A64"/>
<path d="M83.2267 21.847V24.408H87.0407V25.123H83.2267V27.929H87.2077V28.644H82.3887V21.127H87.2077V21.842L83.2267 21.847Z" fill="#455A64"/>
<path d="M87.3462 28.786H82.2422V21.002H87.3502V21.995H83.3652V24.278H87.1832V25.271H83.3652V27.799H87.3462V28.786ZM82.5272 28.508H87.0792V28.071H83.0872V24.987H86.9012V24.546H83.0872V21.71H87.0682V21.273H82.5202L82.5272 28.508Z" fill="#455A64"/>
<path d="M89.8281 28.6499V21.1289H93.4091C94.2171 21.1289 94.7854 21.2882 95.1141 21.6069C95.4428 21.9256 95.6084 22.4802 95.6111 23.2709C95.6171 23.3389 95.6201 23.4189 95.6201 23.4989C95.6201 23.9429 95.5171 24.3629 95.3331 24.7359L95.3401 24.7199C95.0931 25.0259 94.7271 25.2279 94.3141 25.2539H94.3101C95.1061 25.3132 95.5041 25.7976 95.5041 26.7069V28.6269H94.6551V26.9179C94.6551 26.0406 94.2758 25.6019 93.5171 25.6019H90.6781V28.6449L89.8281 28.6499ZM90.6771 24.8919H93.1271C93.1911 24.8989 93.2661 24.9029 93.3411 24.9029C93.7491 24.9029 94.1311 24.7889 94.4561 24.5899L94.4471 24.5949C94.6821 24.3459 94.8261 24.0089 94.8261 23.6379C94.8261 23.5829 94.8231 23.5299 94.8171 23.4769L94.8181 23.4829C94.8181 22.8036 94.7304 22.3612 94.5551 22.1559C94.3798 21.9506 94.0091 21.8479 93.4431 21.8479H90.7001L90.6771 24.8919Z" fill="#455A64"/>
<path d="M95.6341 28.7866H94.5221V26.9336C94.5221 26.1296 94.2031 25.7586 93.5211 25.7586H90.8151V28.8016H89.7031V21.0176H93.4101C94.2511 21.0176 94.8591 21.1916 95.2111 21.5366C95.5631 21.8816 95.7481 22.4746 95.7481 23.2976C95.7541 23.3696 95.7581 23.4526 95.7581 23.5366C95.7581 24.0056 95.6461 24.4496 95.4481 24.8416L95.4561 24.8246C95.3091 25.0326 95.1041 25.1906 94.8641 25.2776L94.8551 25.2806C95.2811 25.4626 95.6451 25.8736 95.6451 26.7636L95.6341 28.7866ZM94.7851 28.5086H95.3561V26.7256C95.3561 25.8846 95.0191 25.4656 94.2881 25.4096H94.1581V25.1616L94.2771 25.1286C94.6531 25.1066 94.9841 24.9286 95.2091 24.6596L95.2111 24.6576C95.3741 24.3206 95.4691 23.9246 95.4691 23.5066C95.4691 23.4276 95.4661 23.3496 95.4591 23.2726L95.4601 23.2826C95.4601 22.5416 95.3081 22.0116 95.0081 21.7186C94.7081 21.4256 94.1631 21.2776 93.3991 21.2776H89.9591V28.5096H90.5301V25.4666H93.4951C94.0771 25.4666 94.7741 25.7186 94.7741 26.9196L94.7851 28.5086ZM93.1171 25.0286H90.5221V21.7116H93.4101C94.0331 21.7116 94.4331 21.8306 94.6371 22.0826C94.8411 22.3346 94.9301 22.7796 94.9301 23.4986C94.9301 24.0916 94.8001 24.4886 94.5301 24.7146C94.2601 24.9406 93.8151 25.0296 93.1291 25.0296L93.1171 25.0286ZM90.8151 24.7506H93.1241C93.1871 24.7576 93.2591 24.7616 93.3331 24.7616C93.7091 24.7616 94.0621 24.6596 94.3641 24.4826L94.3541 24.4876C94.5491 24.2636 94.6681 23.9686 94.6681 23.6456C94.6681 23.5896 94.6641 23.5346 94.6571 23.4806L94.6581 23.4866C94.6581 22.6856 94.5321 22.3746 94.4281 22.2486C94.3241 22.1226 94.0571 21.9896 93.4121 21.9896H90.8171L90.8151 24.7506Z" fill="#455A64"/>
<path d="M101.008 21.9219V28.6499H100.159V21.9219H97.709V21.1289H103.436V21.9149L101.008 21.9219Z" fill="#455A64"/>
<path d="M101.148 28.7861H100.036V22.0581H97.5859V20.9941H103.591V22.0581H101.163L101.148 28.7861ZM100.299 28.5081H100.87V21.7801H103.298V21.2721H97.8569V21.7801H100.307L100.299 28.5081Z" fill="#455A64"/>
<path d="M111.41 21.1289L108.571 25.5099V28.6499H107.722V25.5099L104.953 21.1289H105.939L107.551 23.6679L107.859 24.1569C107.898 24.2162 107.95 24.2966 108.015 24.3979L108.163 24.6459H108.185L108.333 24.3979L108.481 24.1569L108.796 23.6679L110.405 21.1289H111.41Z" fill="#455A64"/>
<path d="M108.709 28.7861H107.597V25.5501L104.713 20.9941H106.01L107.975 24.0931C108.012 24.1491 108.068 24.2301 108.131 24.3381L108.172 24.4051L108.676 23.6011L110.326 21.0061H111.664L108.699 25.5621L108.709 28.7861ZM107.864 28.5081H108.435V25.4681L111.159 21.2721H110.484L108.26 24.7901H108.104L108.041 24.7231L107.893 24.4751C107.834 24.3751 107.782 24.2971 107.745 24.2411L105.862 21.2761H105.206L107.864 25.4681V28.5081Z" fill="#455A64"/>
<path d="M126.198 21.1289V28.6499H125.349V21.7329H125.327L125.26 21.9109L125.193 22.0819L125.048 22.4529L122.487 28.6689H121.638L119.073 22.5269L118.925 22.1789L118.858 22.0009C118.841 21.9616 118.818 21.9046 118.791 21.8299H118.769V28.6499H117.92V21.1289H119.403L121.408 25.9889L121.727 26.7749L121.886 27.1639L122.042 27.5529H122.064L122.22 27.1639C122.297 26.9759 122.349 26.8462 122.376 26.7749L122.702 25.9929L124.704 21.1299L126.198 21.1289Z" fill="#455A64"/>
<path d="M126.336 28.786H125.224V22.485L122.629 28.786H121.58L118.956 22.485V28.786H117.844V21.002H119.545L122.099 27.218L122.136 27.125C122.214 26.94 122.262 26.81 122.288 26.754L122.614 25.964L124.642 21.012H126.366L126.336 28.786ZM125.487 28.508H126.058V21.273H124.798L122.515 26.833C122.493 26.9 122.441 27.033 122.359 27.222L122.17 27.7H121.981L121.925 27.611L121.291 26.043L119.323 21.269H118.085V28.508H118.656V21.669H118.897L118.953 21.762C118.978 21.8313 118.999 21.8843 119.016 21.921L119.231 22.447L121.763 28.507H122.426L125.095 22.028L125.158 21.861L125.258 21.594H125.495L125.514 21.735V22.636L125.487 28.508Z" fill="#455A64"/>
<path d="M133.774 27.0599H129.971L129.393 28.6499H128.496L131.25 21.1289H132.44L135.246 28.6429H134.36L133.774 27.0599ZM133.526 26.4219L131.858 21.8289L130.212 26.4219H133.526Z" fill="#455A64"/>
<path d="M135.447 28.786H134.265L133.683 27.196H130.069L129.491 28.786H128.297L131.151 21.002H132.534L135.447 28.786ZM134.457 28.508H135.046L132.329 21.273H131.332L128.697 28.509H129.298L129.876 26.919H133.876L134.457 28.508ZM133.716 26.555H130.009L131.862 21.414L133.716 26.555ZM130.402 26.277H133.319L131.836 22.233L130.402 26.277Z" fill="#455A64"/>
<path d="M143.969 21.1289V28.6499H142.575L139.424 23.5349L138.912 22.6939L138.66 22.2749L138.408 21.8709H138.386V28.6509H137.537V21.1299H138.923L141.67 25.6109L142.385 26.7899L142.756 27.3719L143.127 27.9609H143.149V21.1299L143.969 21.1289Z" fill="#455A64"/>
<path d="M144.109 28.7851H142.5L138.534 22.3321V28.7851H137.422V21.0011H139.001L142.971 27.4881V20.9941H144.083L144.109 28.7851ZM142.656 28.5071H143.82V21.2721H143.249V28.1031H143.027L142.964 28.0361L141.537 25.6861L138.831 21.2711H137.66V28.5071H138.261V21.7131H138.48L138.543 21.7801L139.562 23.4591L142.656 28.5071Z" fill="#455A64"/>
<path d="M151.553 27.0599H147.75L147.157 28.6499H146.26L149.01 21.1289H150.2L153.006 28.6429H152.12L151.553 27.0599ZM151.305 26.4219L149.637 21.8289L147.991 26.4219H151.305Z" fill="#455A64"/>
<path d="M153.224 28.786H152.042L151.46 27.196H147.85L147.272 28.786H146.078L148.932 21.002H150.315L153.224 28.786ZM152.234 28.508H152.823L150.121 21.273H149.124L146.474 28.509H147.075L147.653 26.919H151.653L152.234 28.508ZM151.493 26.555H147.786L149.639 21.414L151.493 26.555ZM148.179 26.277H151.096L149.613 22.233L148.179 26.277Z" fill="#455A64"/>
<path d="M158.006 24.9098H161.242C161.257 25.1051 161.264 25.3781 161.264 25.7288C161.264 27.0828 161.098 27.9205 160.767 28.2418C160.436 28.5631 159.571 28.7238 158.172 28.7238C156.847 28.7238 155.996 28.5335 155.618 28.1528C155.24 27.7721 155.051 26.9195 155.051 25.5948V23.8268C155.051 22.7148 155.261 21.9735 155.681 21.6028C156.101 21.2321 156.947 21.0481 158.22 21.0508C159.497 21.0508 160.321 21.1745 160.692 21.4218C161.063 21.6691 161.248 22.2065 161.248 23.0338V23.3188H160.418V23.1338C160.418 22.5211 160.294 22.1418 160.047 21.9958C159.8 21.8498 159.144 21.7781 158.079 21.7808C157.09 21.7808 156.473 21.8968 156.226 22.1288C155.979 22.3608 155.856 22.9441 155.855 23.8788V25.9468C155.855 26.8935 155.992 27.4755 156.266 27.6928C156.54 27.9101 157.269 28.0188 158.453 28.0188C159.36 28.0188 159.921 27.9161 160.136 27.7108C160.351 27.5055 160.459 26.9681 160.458 26.0988C160.458 26.0295 160.443 25.8751 160.414 25.6358H158.023L158.006 24.9098Z" fill="#455A64"/>
<path d="M158.151 28.8631C156.776 28.8631 155.908 28.6631 155.497 28.2511C155.086 27.8391 154.889 26.9721 154.889 25.5971V23.8181C154.889 22.6541 155.111 21.8941 155.567 21.4981C156.023 21.1021 156.879 20.9121 158.199 20.9121C159.519 20.9121 160.349 21.0381 160.746 21.2831C161.143 21.5281 161.365 22.1171 161.365 23.0101V23.4361H160.253V23.1101C160.253 22.5611 160.146 22.2091 159.945 22.0941C159.744 21.9791 159.333 21.8981 158.047 21.8981C156.876 21.8981 156.453 22.0691 156.305 22.2091C156.157 22.3491 155.979 22.7501 155.979 23.8581V25.9451C155.979 27.0571 156.172 27.4541 156.35 27.5831C156.528 27.7121 157.021 27.8761 158.452 27.8761C159.531 27.8761 159.909 27.7281 160.038 27.6051C160.167 27.4821 160.316 27.1231 160.316 26.0931C160.316 26.0561 160.316 25.9711 160.286 25.7711H157.869V24.7701H161.357V24.9001C161.357 25.0961 161.379 25.3781 161.379 25.7301C161.379 27.1351 161.201 27.9911 160.838 28.3251C160.475 28.6591 159.604 28.8631 158.151 28.8631ZM158.2 21.1941C156.966 21.1941 156.143 21.3681 155.75 21.7091C155.357 22.0501 155.168 22.7581 155.168 23.8221V25.6011C155.168 26.8841 155.346 27.7101 155.694 28.0591C156.042 28.4081 156.869 28.5891 158.152 28.5891C159.842 28.5891 160.446 28.3481 160.658 28.1441C160.87 27.9401 161.114 27.3621 161.114 25.7311C161.114 25.4571 161.114 25.2271 161.114 25.0491H158.149V25.4861H160.521V25.6081C160.551 25.8531 160.565 26.0121 160.565 26.0861C160.565 27.0161 160.45 27.5691 160.194 27.7981C159.938 28.0271 159.382 28.1461 158.415 28.1461C157.184 28.1461 156.443 28.0311 156.139 27.7751C155.835 27.5191 155.683 26.9371 155.683 25.9441V23.8651C155.683 22.8861 155.816 22.2791 156.094 22.0121C156.372 21.7451 157.002 21.6411 158.029 21.6411C159.141 21.6411 159.79 21.7151 160.068 21.8751C160.346 22.0351 160.513 22.4611 160.513 23.1321V23.1801H161.065V23.0321C161.065 22.2541 160.898 21.7491 160.572 21.5491C160.246 21.3491 159.445 21.1941 158.2 21.1941Z" fill="#455A64"/>
<path d="M164.385 21.847V24.408H168.199V25.123H164.385V27.929H168.366V28.644H163.547V21.127H168.366V21.842L164.385 21.847Z" fill="#455A64"/>
<path d="M168.502 28.786H163.398V21.002H168.506V21.995H164.525V24.278H168.339V25.271H164.525V27.799H168.506L168.502 28.786ZM163.683 28.508H168.235V28.071H164.247V24.987H168.061V24.546H164.247V21.71H168.228V21.273H163.676L163.683 28.508Z" fill="#455A64"/>
<path d="M179.238 21.1289V28.6499H178.389V21.7329H178.367L178.3 21.9109L178.233 22.0819L178.088 22.4529L175.527 28.6689H174.678L172.113 22.5269L171.965 22.1789L171.898 22.0009C171.881 21.9616 171.858 21.9046 171.831 21.8299H171.809V28.6499H170.99V21.1289H172.473L174.478 25.9889L174.797 26.7749L174.956 27.1639L175.112 27.5529H175.134L175.29 27.1639C175.367 26.9759 175.419 26.8462 175.446 26.7749L175.772 25.9929L177.744 21.1299L179.238 21.1289Z" fill="#455A64"/>
<path d="M179.375 28.7852H178.263V22.4842L175.668 28.7852H174.586L171.991 22.4982V28.7992H170.879V21.0152H172.58L175.134 27.2352L175.171 27.1422C175.249 26.9572 175.297 26.8272 175.323 26.7712L175.623 25.9442L177.651 20.9922H179.375V28.7852ZM178.526 28.5072H179.097V21.2722H177.837L175.554 26.8322C175.532 26.8992 175.48 27.0322 175.398 27.2212L175.209 27.6992H175.02L174.957 27.6142L174.323 26.0462L172.362 21.2722H171.124V28.5082H171.695V21.6692H171.936L171.992 21.7622C172.017 21.8315 172.038 21.8845 172.055 21.9212L172.27 22.4472L174.802 28.5072H175.465L178.134 22.0282L178.197 21.8612L178.297 21.5942H178.534V22.6362L178.526 28.5072Z" fill="#455A64"/>
<path d="M182.74 21.847V24.408H186.554V25.123H182.74V27.929H186.721V28.644H181.902V21.127H186.721V21.842L182.74 21.847Z" fill="#455A64"/>
<path d="M186.858 28.786H181.754V21.002H186.862V21.995H182.881V24.278H186.695V25.271H182.881V27.799H186.862L186.858 28.786ZM182.039 28.508H186.591V28.071H182.603V24.987H186.417V24.546H182.603V21.71H186.584V21.273H182.032L182.039 28.508Z" fill="#455A64"/>
<path d="M195.762 21.1289V28.6499H194.368L191.217 23.5349L190.705 22.6939L190.453 22.2749L190.201 21.8709H190.179V28.6509H189.33V21.1299H190.716L193.489 25.6149L194.204 26.7939L194.575 27.3759L194.946 27.9649H194.968V21.1299L195.762 21.1289Z" fill="#455A64"/>
<path d="M195.904 28.7861H194.295L190.329 22.3331V28.7861H189.217V21.0021H190.822L194.792 27.4921V20.9941H195.904V28.7861ZM194.451 28.5081H195.626V21.2731H195.055V28.1041H194.833L194.77 28.0371L193.343 25.6871L190.637 21.2721H189.466V28.5081H190.037V21.7141H190.256L190.319 21.7811L191.338 23.4601L194.451 28.5081Z" fill="#455A64"/>
<path d="M201.348 21.9219V28.6499H200.499V21.9219H198.049V21.1289H203.776V21.9149L201.348 21.9219Z" fill="#455A64"/>
<path d="M201.49 28.7861H200.378V22.0581H197.928V20.9941H203.933V22.0581H201.505L201.49 28.7861ZM200.641 28.5081H201.212V21.7801H203.64V21.2721H198.191V21.7801H200.641V28.5081Z" fill="#455A64"/>
<path d="M8.48878 24.3524H19.1718C19.2068 24.3524 19.2348 24.3244 19.2348 24.2894V17.2134C19.2348 17.1784 19.2068 17.1504 19.1718 17.1504H8.48878C8.45378 17.1504 8.42578 17.1784 8.42578 17.2134V24.2894C8.42578 24.3244 8.45378 24.3524 8.48878 24.3524ZM18.1788 23.2404C18.1788 23.2754 18.1508 23.3034 18.1158 23.3034H13.9418V20.8604H18.1638L18.1788 23.2404ZM18.1158 18.2144C18.1508 18.2144 18.1788 18.2424 18.1788 18.2774V20.6494H13.9418V18.2064L18.1158 18.2144ZM9.48278 18.2774C9.48278 18.2424 9.51078 18.2144 9.54578 18.2144H13.7158V20.6494H9.48278V18.2774ZM9.48278 20.8714H13.7158V23.3064H9.54578C9.51078 23.3064 9.48278 23.2784 9.48278 23.2434V20.8714Z" fill="#455A64"/>
<path d="M29.1118 23.4513H34.9318C34.9668 23.4513 34.9948 23.4233 34.9948 23.3883V18.0103C34.9948 17.9753 34.9668 17.9473 34.9318 17.9473H29.1118C29.0768 17.9473 29.0488 17.9753 29.0488 18.0103V23.3883C29.0488 23.4233 29.0768 23.4513 29.1118 23.4513ZM34.1018 22.4913C34.1018 22.5263 34.0738 22.5543 34.0388 22.5543H32.1338V20.8083H34.1018V22.4913ZM34.0388 18.8443C34.0718 18.8443 34.0998 18.8703 34.1018 18.9033V20.5863H32.1368V18.8443H34.0388ZM29.9498 18.9033C29.9498 18.8683 29.9778 18.8403 30.0128 18.8403H31.9148V20.5863H29.9498V18.9033ZM29.9498 20.8053H31.9148V22.5513H30.0248C29.9898 22.5513 29.9618 22.5233 29.9618 22.4883L29.9498 20.8053Z" fill="#455A64"/>
<path d="M41.9858 25.2057C42.2728 24.6997 42.4428 24.0947 42.4458 23.4497C42.4278 22.2637 41.8768 21.2097 41.0218 20.5147L41.0148 20.5087C41.2338 20.1067 41.3628 19.6277 41.3628 19.1187C41.3628 17.3027 39.7058 15.8267 37.6558 15.8267C37.5188 15.8267 37.3818 15.8267 37.2478 15.8457V12.6027H39.8088C39.8098 12.6027 39.8118 12.6027 39.8128 12.6027C39.9408 12.6027 40.0518 12.5337 40.1118 12.4297L40.1128 12.4277C40.1428 12.3777 40.1608 12.3167 40.1608 12.2517C40.1608 12.1867 40.1428 12.1257 40.1118 12.0737L40.1128 12.0757L35.0458 3.09069C34.9858 2.98369 34.8728 2.91269 34.7438 2.91269C34.7418 2.91269 34.7398 2.91269 34.7378 2.91269H16.8568V0.121688C16.8568 0.120688 16.8568 0.119688 16.8568 0.117688C16.8568 0.0826875 16.8288 0.0546875 16.7938 0.0546875H12.6018C12.5668 0.0546875 12.5388 0.0826875 12.5388 0.117688C12.5388 0.118688 12.5388 0.120688 12.5388 0.121688V2.91269H9.06185C9.06085 2.91269 9.05885 2.91269 9.05685 2.91269C8.93185 2.91269 8.82285 2.97869 8.76285 3.07769L8.76185 3.07969L3.26485 12.0687C3.23085 12.1207 3.21085 12.1857 3.21085 12.2537C3.21085 12.3217 3.23085 12.3867 3.26585 12.4407L3.26485 12.4397C3.32385 12.5487 3.43785 12.6217 3.56885 12.6217C3.56985 12.6217 3.57185 12.6217 3.57285 12.6217H6.16685V15.8687C6.03385 15.8687 5.89585 15.8497 5.75885 15.8497C3.71685 15.8497 2.05185 17.3327 2.05185 19.1417C2.05285 19.6507 2.18185 20.1297 2.40785 20.5477L2.39985 20.5317C1.53785 21.2317 0.986843 22.2857 0.968843 23.4677V23.4707C0.980843 24.1107 1.15685 24.7067 1.45585 25.2227L1.44685 25.2057C0.571843 25.9027 0.00484379 26.9537 -0.0351562 28.1387V28.1447C-0.0321562 28.7907 0.144843 29.3957 0.451843 29.9147L0.442843 29.8987C0.503843 30.0017 0.613843 30.0697 0.740843 30.0697C0.744843 30.0697 0.747843 30.0697 0.751843 30.0697H42.6968C42.6978 30.0697 42.6988 30.0697 42.6998 30.0697C42.8158 30.0697 42.9168 30.0057 42.9708 29.9117L42.9718 29.9097C43.2718 29.4047 43.4508 28.7957 43.4538 28.1457C43.4168 26.9567 42.8548 25.9047 41.9938 25.2107L41.9858 25.2057ZM21.4988 28.9527V18.4477C21.4988 18.4127 21.5268 18.3847 21.5618 18.3847H26.5988C26.6338 18.3847 26.6618 18.4127 26.6618 18.4477V28.9527C26.6618 28.9877 26.6338 29.0157 26.5988 29.0157H21.5798C21.5738 29.0177 21.5678 29.0187 21.5608 29.0187C21.5258 29.0187 21.4978 28.9907 21.4978 28.9557C21.4978 28.9547 21.4978 28.9537 21.4978 28.9527H21.4988ZM36.1848 28.8007C36.1848 28.9197 36.0888 29.0157 35.9698 29.0157H27.7228V17.2137C27.7228 17.1787 27.6948 17.1507 27.6598 17.1507H20.5248C20.4898 17.1507 20.4618 17.1787 20.4618 17.2137V29.0157H7.44785C7.32885 29.0157 7.23285 28.9197 7.23285 28.8007V12.6027H36.2008L36.1848 28.8007Z" fill="#455A64"/>
<path d="M26.3888 23.9112C26.3888 24.1422 26.2008 24.3302 25.9698 24.3302C25.7388 24.3302 25.5508 24.1422 25.5508 23.9112C25.5508 23.6802 25.7388 23.4922 25.9698 23.4922C26.2008 23.4922 26.3888 23.6802 26.3888 23.9112Z" fill="#455A64"/>
<path d="M0.759766 30.0723H203.776V31.5553H0.759766V30.0723Z" fill="#455A64"/>
</g>
</g>
<defs>
<clipPath id="clip0_1132_4310">
<rect width="204" height="32" fill="white"/>
</clipPath>
</defs>
</svg>
