<svg width="48" height="48" viewBox="0 0 48 48" fill="none" xmlns="http://www.w3.org/2000/svg">
<mask id="mask0_822_2099" style="mask-type:alpha" maskUnits="userSpaceOnUse" x="0" y="0" width="48" height="48">
<rect width="48" height="48" fill="#D9D9D9"/>
</mask>
<g mask="url(#mask0_822_2099)">
<path d="M31 42.1433L23.85 35.0285L25.3 33.6354L31 39.3074L42.35 28.0133L43.75 29.4064L31 42.1433ZM24 21.6945L39.4 11.7438H8.6L24 21.6945ZM24 23.9335L8 13.4852V34.3817C8 34.7466 8.11667 35.0451 8.35 35.2773C8.58333 35.5095 8.88333 35.6256 9.25 35.6256H18.8L20.8 37.6157H9.25C8.31667 37.6157 7.542 37.3092 6.926 36.6963C6.30867 36.082 6 35.3105 6 34.3817V12.9877C6 12.0589 6.30867 11.2881 6.926 10.6751C7.542 10.0608 8.31667 9.75366 9.25 9.75366H38.75C39.6833 9.75366 40.4587 10.0608 41.076 10.6751C41.692 11.2881 42 12.0589 42 12.9877V22.7891L40 24.7793V13.4852L24 23.9335Z" fill="#FF6600"/>
</g>
</svg>
