<svg width="52" height="52" viewBox="0 0 52 52" fill="none" xmlns="http://www.w3.org/2000/svg">
<mask id="mask0_1127_4217" style="mask-type:alpha" maskUnits="userSpaceOnUse" x="0" y="0" width="52" height="52">
<rect width="52" height="52" fill="#D9D9D9"/>
</mask>
<g mask="url(#mask0_1127_4217)">
<path d="M2.925 37.0125C2.09444 37.0125 1.39967 36.7323 0.840667 36.1718C0.280222 35.6128 0 34.9181 0 34.0875C0 33.2569 0.280222 32.5622 0.840667 32.0032C1.39967 31.4427 2.09444 31.1625 2.925 31.1625C3.21389 31.1625 3.48472 31.1899 3.7375 31.2448C3.99028 31.2983 4.225 31.4153 4.44167 31.5958L15.6 20.4375C15.4194 20.2208 15.3024 19.9861 15.249 19.7333C15.1941 19.4806 15.1667 19.2097 15.1667 18.9208C15.1667 18.0903 15.4469 17.3948 16.0073 16.8343C16.5663 16.2753 17.2611 15.9958 18.0917 15.9958C18.9222 15.9958 19.6177 16.2753 20.1782 16.8343C20.7372 17.3948 21.0167 18.0903 21.0167 18.9208C21.0167 19.1375 20.9083 19.6069 20.6917 20.3292L27.5167 27.1542C27.7333 27.0458 27.95 26.9649 28.1667 26.9115C28.3833 26.8566 28.6361 26.8292 28.925 26.8292C29.2139 26.8292 29.4761 26.8566 29.7115 26.9115C29.9455 26.9649 30.1528 27.0819 30.3333 27.2625L39.4333 18.1625C39.2528 17.9819 39.1358 17.7739 39.0823 17.5385C39.0274 17.3045 39 17.0431 39 16.7542C39 15.9236 39.2802 15.2281 39.8407 14.6677C40.3997 14.1087 41.0944 13.8292 41.925 13.8292C42.7556 13.8292 43.4511 14.1087 44.0115 14.6677C44.5705 15.2281 44.85 15.9236 44.85 16.7542C44.85 17.5847 44.5705 18.2795 44.0115 18.8385C43.4511 19.3989 42.7556 19.6792 41.925 19.6792C41.6361 19.6792 41.3747 19.6517 41.1407 19.5968C40.9052 19.5434 40.6972 19.4264 40.5167 19.2458L31.4167 28.3458C31.5972 28.5264 31.7142 28.7337 31.7677 28.9677C31.8226 29.2031 31.85 29.4653 31.85 29.7542C31.85 30.5847 31.5705 31.2795 31.0115 31.8385C30.4511 32.3989 29.7556 32.6792 28.925 32.6792C28.0944 32.6792 27.3997 32.3989 26.8407 31.8385C26.2802 31.2795 26 30.5847 26 29.7542C26 29.4653 26.0274 29.1944 26.0823 28.9417C26.1358 28.6889 26.2528 28.4542 26.4333 28.2375L19.6083 21.4125C19.3917 21.5931 19.1569 21.7101 18.9042 21.7635C18.6514 21.8184 18.3806 21.8458 18.0917 21.8458C17.875 21.8458 17.4056 21.7375 16.6833 21.5208L5.525 32.6792C5.63333 32.8958 5.71422 33.1125 5.76767 33.3292C5.82255 33.5458 5.85 33.7986 5.85 34.0875C5.85 34.9181 5.5705 35.6128 5.0115 36.1718C4.45106 36.7323 3.75556 37.0125 2.925 37.0125ZM5.09167 14.4792L4.44167 13.0708L3.03333 12.4208L4.44167 11.7708L5.09167 10.3625L5.74167 11.7708L7.15 12.4208L5.74167 13.0708L5.09167 14.4792ZM28.925 11.175L27.95 9.0625L25.8375 8.0875L27.95 7.1125L28.925 5L29.9 7.1125L32.0125 8.0875L29.9 9.0625L28.925 11.175Z" fill="#444444"/>
<path d="M39.7081 45.2271H44.1526C44.4044 45.2271 44.6157 45.1357 44.7863 44.9528C44.9564 44.7706 45.0414 44.5446 45.0414 44.2748C45.0414 44.0049 44.9564 43.7786 44.7863 43.5957C44.6157 43.4135 44.4044 43.3224 44.1526 43.3224H39.7081C39.4563 43.3224 39.245 43.4135 39.0743 43.5957C38.9043 43.7786 38.8192 44.0049 38.8192 44.2748C38.8192 44.5446 38.9043 44.7706 39.0743 44.9528C39.245 45.1357 39.4563 45.2271 39.7081 45.2271ZM39.7081 41.4176H46.8192C47.0711 41.4176 47.282 41.3262 47.4521 41.1433C47.6228 40.9611 47.7081 40.7351 47.7081 40.4652C47.7081 40.1954 47.6228 39.969 47.4521 39.7862C47.282 39.604 47.0711 39.5128 46.8192 39.5128H39.7081C39.4563 39.5128 39.245 39.604 39.0743 39.7862C38.9043 39.969 38.8192 40.1954 38.8192 40.4652C38.8192 40.7351 38.9043 40.9611 39.0743 41.1433C39.245 41.3262 39.4563 41.4176 39.7081 41.4176ZM39.7081 37.6081H46.8192C47.0711 37.6081 47.282 37.5167 47.4521 37.3338C47.6228 37.1516 47.7081 36.9255 47.7081 36.6557C47.7081 36.3859 47.6228 36.1595 47.4521 35.9767C47.282 35.7944 47.0711 35.7033 46.8192 35.7033H39.7081C39.4563 35.7033 39.245 35.7944 39.0743 35.9767C38.9043 36.1595 38.8192 36.3859 38.8192 36.6557C38.8192 36.9255 38.9043 37.1516 39.0743 37.3338C39.245 37.5167 39.4563 37.6081 39.7081 37.6081ZM37.0414 49.0367C36.5526 49.0367 36.1339 48.8503 35.7854 48.4776C35.4376 48.1043 35.2637 47.6557 35.2637 47.1319V33.7986C35.2637 33.2748 35.4376 32.8262 35.7854 32.4528C36.1339 32.0801 36.5526 31.8938 37.0414 31.8938H49.4859C49.9748 31.8938 50.3934 32.0801 50.7419 32.4528C51.0897 32.8262 51.2637 33.2748 51.2637 33.7986V47.1319C51.2637 47.6557 51.0897 48.1043 50.7419 48.4776C50.3934 48.8503 49.9748 49.0367 49.4859 49.0367H37.0414Z" fill="#FF6600"/>
</g>
</svg>
