<svg width="25" height="25" viewBox="0 0 25 25" fill="none" xmlns="http://www.w3.org/2000/svg">
<g clip-path="url(#clip0_1252_70)">
<path d="M10.6915 14.6865L8.49781 12.5115C8.3129 12.3281 8.08193 12.2408 7.8049 12.2495C7.5272 12.2575 7.2959 12.3531 7.11099 12.5365C6.92608 12.7198 6.83362 12.9531 6.83362 13.2365C6.83362 13.5198 6.92608 13.7531 7.11099 13.9365L9.98549 16.7865C10.1704 16.9698 10.4057 17.0615 10.6915 17.0615C10.9773 17.0615 11.2126 16.9698 11.3975 16.7865L17.1213 11.1115C17.3062 10.9281 17.3946 10.6988 17.3866 10.4235C17.3778 10.1488 17.281 9.91981 17.0961 9.73647C16.9112 9.55314 16.6758 9.46147 16.3901 9.46147C16.1043 9.46147 15.869 9.55314 15.6841 9.73647L10.6915 14.6865ZM12.1035 22.8865C10.7083 22.8865 9.39714 22.6238 8.17001 22.0985C6.94289 21.5738 5.87546 20.8615 4.96772 19.9615C4.05999 19.0615 3.34153 18.0031 2.81235 16.7865C2.2825 15.5698 2.01758 14.2698 2.01758 12.8865C2.01758 11.5031 2.2825 10.2031 2.81235 8.98647C3.34153 7.76981 4.05999 6.71147 4.96772 5.81147C5.87546 4.91147 6.94289 4.19881 8.17001 3.67347C9.39714 3.14881 10.7083 2.88647 12.1035 2.88647C13.4988 2.88647 14.8099 3.14881 16.0371 3.67347C17.2642 4.19881 18.3316 4.91147 19.2394 5.81147C20.1471 6.71147 20.8655 7.76981 21.3947 8.98647C21.9246 10.2031 22.1895 11.5031 22.1895 12.8865C22.1895 14.2698 21.9246 15.5698 21.3947 16.7865C20.8655 18.0031 20.1471 19.0615 19.2394 19.9615C18.3316 20.8615 17.2642 21.5738 16.0371 22.0985C14.8099 22.6238 13.4988 22.8865 12.1035 22.8865ZM12.1035 20.8865C14.3393 20.8865 16.2432 20.1075 17.8152 18.5495C19.3866 16.9908 20.1723 15.1031 20.1723 12.8865C20.1723 10.6698 19.3866 8.78214 17.8152 7.22347C16.2432 5.66547 14.3393 4.88647 12.1035 4.88647C9.86782 4.88647 7.96426 5.66547 6.39287 7.22347C4.8208 8.78214 4.03477 10.6698 4.03477 12.8865C4.03477 15.1031 4.8208 16.9908 6.39287 18.5495C7.96426 20.1075 9.86782 20.8865 12.1035 20.8865Z" fill="#8D8D8D"/>
</g>
<defs>
<clipPath id="clip0_1252_70">
<rect width="24.2063" height="24" fill="white" transform="translate(0 0.886475)"/>
</clipPath>
</defs>
</svg>
