<svg width="24" height="24" viewBox="0 0 24 24" fill="none" xmlns="http://www.w3.org/2000/svg">
<mask id="mask0_1397_3545" style="mask-type:alpha" maskUnits="userSpaceOnUse" x="0" y="0" width="24" height="24">
<rect width="24" height="24" fill="#D9D9D9"/>
</mask>
<g mask="url(#mask0_1397_3545)">
<path d="M12.3402 11.7719C12.7377 11.7719 13.0757 11.6326 13.3542 11.3542C13.6326 11.0757 13.7719 10.7377 13.7719 10.3402C13.7719 9.9427 13.6326 9.60472 13.3542 9.32626C13.0757 9.0478 12.7377 8.90856 12.3402 8.90856C11.9427 8.90856 11.6047 9.0478 11.3263 9.32626C11.0478 9.60472 10.9086 9.9427 10.9086 10.3402C10.9086 10.7377 11.0478 11.0757 11.3263 11.3542C11.6047 11.6326 11.9427 11.7719 12.3402 11.7719ZM12.3402 18.3591C14.0247 16.853 15.2979 15.4158 16.1601 14.0476C17.0222 12.6794 17.4533 11.4981 17.4533 10.5038C17.4533 8.95468 16.9598 7.68795 15.9729 6.70362C14.9859 5.71927 13.775 5.2271 12.3402 5.2271C10.9054 5.2271 9.69451 5.71927 8.70754 6.70362C7.72058 7.68795 7.2271 8.95468 7.2271 10.5038C7.2271 11.4981 7.65817 12.6794 8.52032 14.0476C9.38247 15.4158 10.6558 16.853 12.3402 18.3591ZM12.3402 20C10.2079 18.1478 8.61815 16.4284 7.57088 14.8421C6.52363 13.2557 6 11.8096 6 10.5038C6 8.52153 6.63822 6.94198 7.91465 5.76518C9.19108 4.58839 10.6663 4 12.3402 4C14.0142 4 15.4893 4.58839 16.7658 5.76518C18.0422 6.94198 18.6804 8.52153 18.6804 10.5038C18.6804 11.8096 18.1568 13.2557 17.1095 14.8421C16.0623 16.4284 14.4725 18.1478 12.3402 20Z" fill="white"/>
</g>
</svg>
