<svg width="168" height="50" viewBox="0 0 168 50" fill="none" xmlns="http://www.w3.org/2000/svg">
<g clip-path="url(#clip0_348_241)">
<path d="M0.0369873 37.8101V17.207H8.87672C10.7049 17.207 12.2804 17.5112 13.6029 18.1194C14.9255 18.7081 15.9465 19.5616 16.6662 20.6801C17.3858 21.7986 17.7456 23.1329 17.7456 24.683C17.7456 26.2135 17.3858 27.538 16.6662 28.6565C15.9465 29.7749 14.9255 30.6383 13.6029 31.2466C12.2804 31.8352 10.7049 32.1296 8.87672 32.1296H2.66265L4.76316 29.981V37.8101H0.0369873ZM4.76316 30.5108L2.66265 28.2444H8.61414C10.0728 28.2444 11.162 27.9305 11.8817 27.3025C12.6012 26.6747 12.9611 25.8015 12.9611 24.683C12.9611 23.545 12.6012 22.6619 11.8817 22.034C11.162 21.4061 10.0728 21.0922 8.61414 21.0922H2.66265L4.76316 18.8258V30.5108Z" fill="white"/>
<path d="M21.1198 37.8101V17.207H29.9595C31.7877 17.207 33.3631 17.5112 34.6857 18.1194C36.0082 18.7081 37.0293 19.5616 37.7489 20.6801C38.4685 21.7986 38.8284 23.1329 38.8284 24.683C38.8284 26.2135 38.4685 27.538 37.7489 28.6565C37.0293 29.7553 36.0082 30.5991 34.6857 31.1877C33.3631 31.7763 31.7877 32.0707 29.9595 32.0707H23.7454L25.8459 29.981V37.8101H21.1198ZM34.1022 37.8101L28.9967 30.3341H34.0438L39.2076 37.8101H34.1022ZM25.8459 30.5108L23.7454 28.2738H29.6969C31.1556 28.2738 32.2448 27.9599 32.9644 27.332C33.684 26.6844 34.0438 25.8015 34.0438 24.683C34.0438 23.545 33.684 22.6619 32.9644 22.034C32.2448 21.4061 31.1556 21.0922 29.6969 21.0922H23.7454L25.8459 18.8258V30.5108Z" fill="white"/>
<path d="M68.4373 37.8101V17.207H77.277C79.1052 17.207 80.6807 17.5112 82.0033 18.1194C83.3258 18.7081 84.3468 19.5616 85.0667 20.6801C85.7862 21.7986 86.1461 23.1329 86.1461 24.683C86.1461 26.2135 85.7862 27.538 85.0667 28.6565C84.3468 29.7749 83.3258 30.6383 82.0033 31.2466C80.6807 31.8352 79.1052 32.1296 77.277 32.1296H71.0631L73.1635 29.981V37.8101H68.4373ZM73.1635 30.5108L71.0631 28.2444H77.0145C78.4731 28.2444 79.5622 27.9305 80.2821 27.3025C81.0015 26.6747 81.3615 25.8015 81.3615 24.683C81.3615 23.545 81.0015 22.6619 80.2821 22.034C79.5622 21.4061 78.4731 21.0922 77.0145 21.0922H71.0631L73.1635 18.8258V30.5108Z" fill="white"/>
<path d="M93.867 25.5071H103.699V29.2157H93.867V25.5071ZM94.2173 33.9838H105.333V37.8101H89.52V17.207H104.953V21.0333H94.2173V33.9838Z" fill="white"/>
<path d="M109.093 37.8101V17.207H117.933C119.761 17.207 121.336 17.5112 122.659 18.1194C123.981 18.7081 125.002 19.5616 125.722 20.6801C126.442 21.7986 126.802 23.1329 126.802 24.683C126.802 26.2135 126.442 27.538 125.722 28.6565C125.002 29.7553 123.981 30.5991 122.659 31.1877C121.336 31.7763 119.761 32.0707 117.933 32.0707H111.719L113.819 29.981V37.8101H109.093ZM122.076 37.8101L116.97 30.3341H122.017L127.181 37.8101H122.076ZM113.819 30.5108L111.719 28.2738H117.67C119.129 28.2738 120.218 27.9599 120.938 27.332C121.657 26.6844 122.017 25.8015 122.017 24.683C122.017 23.545 121.657 22.6619 120.938 22.034C120.218 21.4061 119.129 21.0922 117.67 21.0922H111.719L113.819 18.8258V30.5108Z" fill="white"/>
<path d="M134.491 37.8101V21.0922H127.956V17.207H145.753V21.0922H139.218V37.8101H134.491Z" fill="white"/>
<path d="M155.339 37.8101V29.3923L156.418 32.2767L147.432 17.207H152.45L159.335 28.7742H156.447L163.361 17.207H168L159.014 32.2767L160.064 29.3923V37.8101H155.339Z" fill="white"/>
<path d="M121.361 49.7424V43.417H118.889V41.9468H125.622V43.417H123.15V49.7424H121.361Z" fill="white"/>
<path d="M126.285 49.7424L129.729 41.9468H131.495L134.95 49.7424H133.074L130.248 42.8598H130.954L128.117 49.7424H126.285ZM128.007 48.0721L128.482 46.7022H132.455L132.941 48.0721H128.007Z" fill="white"/>
<path d="M135.563 49.7424L138.886 45.1208V46.4348L135.706 41.9468H137.738L139.935 45.0763L139.085 45.0874L141.248 41.9468H143.191L140.034 46.3569V45.0649L143.379 49.7424H141.314L139.04 46.4348H139.857L137.616 49.7424H135.563Z" fill="white"/>
<path d="M146.827 45.0874H150.547V46.4908H146.827V45.0874ZM146.959 48.2946H151.165V49.7424H145.182V41.9468H151.022V43.3946H146.959V48.2946Z" fill="white"/>
<path d="M156.231 49.8762C155.613 49.8762 155.021 49.7944 154.454 49.6309C153.887 49.4601 153.431 49.241 153.085 48.9741L153.692 47.6152C154.024 47.8529 154.413 48.0495 154.862 48.2054C155.319 48.3542 155.779 48.4283 156.242 48.4283C156.595 48.4283 156.879 48.3949 157.092 48.3279C157.313 48.2537 157.475 48.1533 157.578 48.0275C157.681 47.9012 157.733 47.7563 157.733 47.5932C157.733 47.3851 157.652 47.2215 157.489 47.1029C157.328 46.9766 157.114 46.8766 156.849 46.8025C156.584 46.7207 156.29 46.6465 155.966 46.5796C155.65 46.5054 155.33 46.416 155.006 46.3122C154.689 46.2084 154.399 46.0745 154.134 45.9114C153.869 45.7478 153.652 45.5326 153.483 45.2652C153.321 44.9982 153.24 44.6567 153.24 44.2406C153.24 43.7953 153.358 43.3906 153.593 43.0271C153.836 42.6559 154.196 42.3624 154.675 42.1471C155.161 41.9243 155.767 41.813 156.496 41.813C156.982 41.813 157.46 41.8724 157.931 41.9912C158.402 42.1025 158.818 42.2733 159.179 42.5033L158.626 43.8732C158.266 43.6652 157.905 43.5131 157.545 43.4169C157.184 43.3126 156.831 43.261 156.485 43.261C156.139 43.261 155.856 43.3016 155.635 43.3834C155.414 43.4648 155.256 43.5724 155.161 43.7063C155.065 43.8326 155.017 43.9809 155.017 44.1516C155.017 44.3521 155.098 44.5156 155.26 44.6419C155.422 44.7605 155.635 44.8571 155.9 44.9313C156.165 45.0054 156.456 45.0796 156.772 45.1542C157.096 45.2283 157.416 45.3135 157.733 45.4101C158.056 45.5067 158.35 45.6368 158.616 45.7999C158.881 45.9635 159.094 46.1787 159.256 46.4457C159.425 46.7131 159.51 47.0508 159.51 47.4593C159.51 47.8974 159.388 48.2982 159.146 48.6622C158.903 49.0258 158.538 49.319 158.053 49.5419C157.574 49.7648 156.967 49.8762 156.231 49.8762Z" fill="white"/>
<path d="M13.0692 0.124023C13.9102 0.124023 14.6527 0.28975 15.2967 0.621201C15.9406 0.952654 16.4399 1.45646 16.7948 2.13263C17.1627 2.80879 17.3467 3.66394 17.3467 4.69805V10.7636H15.4544V4.91683C15.4544 3.89596 15.2178 3.12698 14.7447 2.60992C14.2716 2.09285 13.608 1.83432 12.7538 1.83432C12.123 1.83432 11.571 1.9669 11.098 2.23206C10.6249 2.49723 10.2569 2.88834 9.99407 3.40541C9.74438 3.92247 9.61956 4.56547 9.61956 5.33445V10.7636H7.72716V4.91683C7.72716 3.89596 7.49062 3.12698 7.01753 2.60992C6.55759 2.09285 5.89395 1.83432 5.0266 1.83432C4.40895 1.83432 3.86359 1.9669 3.39049 2.23206C2.9174 2.49723 2.54944 2.88834 2.28661 3.40541C2.02378 3.92247 1.89237 4.56547 1.89237 5.33445V10.7636H0V0.223459H1.81352V3.02755L1.51784 2.31161C1.84638 1.62219 2.35232 1.08523 3.03568 0.700752C3.71903 0.316266 4.51408 0.124023 5.42086 0.124023C6.41962 0.124023 7.28037 0.375928 8.00315 0.879735C8.72592 1.37029 9.19901 2.11937 9.42241 3.12699L8.65364 2.80879C8.96906 2.00005 9.52099 1.3504 10.3095 0.859849C11.098 0.369299 12.0178 0.124023 13.0692 0.124023Z" fill="white"/>
<path d="M21.0894 14.741C20.59 14.741 20.1038 14.6548 19.6307 14.4825C19.1576 14.3234 18.7503 14.0848 18.4086 13.7665L19.2168 12.3347C19.4796 12.5866 19.7687 12.7788 20.0841 12.9114C20.3995 13.044 20.7346 13.1103 21.0894 13.1103C21.5494 13.1103 21.9305 12.9909 22.2328 12.7523C22.535 12.5137 22.8176 12.0894 23.0804 11.4795L23.7309 10.0278L23.928 9.78913L28.0281 0.223389H29.8811L24.815 11.8176C24.5128 12.5601 24.1711 13.1434 23.79 13.5677C23.4221 13.9919 23.0147 14.2902 22.5679 14.4626C22.121 14.6482 21.6282 14.741 21.0894 14.741ZM23.5732 11.1017L18.8028 0.223389H20.7741L24.8347 9.61014L23.5732 11.1017Z" fill="white"/>
<path d="M65.2276 31.6766C65.2276 33.7449 64.6338 35.2901 63.4464 36.3124C62.2826 37.3109 60.3825 37.8101 57.7466 37.8101H49.0896C46.4536 37.8101 44.5418 37.3109 43.354 36.3124C42.1667 35.2901 41.573 33.7449 41.573 31.6766V23.2609C41.573 21.1927 42.1667 19.6593 43.354 18.6608C44.5418 17.6385 46.4536 17.1274 49.0896 17.1274H57.7466C60.3825 17.1274 62.2826 17.6385 63.4464 18.6608C64.6338 19.6593 65.2276 21.1927 65.2276 23.2609V31.6766Z" fill="#FF6600"/>
<path d="M53.4005 34.4711C54.4249 34.4711 55.3069 33.5655 55.6941 32.2727H51.1064C51.4937 33.5655 52.3757 34.4711 53.4005 34.4711Z" fill="white"/>
<path d="M57.7459 25.1452V26.0747C57.7459 27.8094 58.401 29.4543 59.5913 30.7064C59.7077 30.8291 59.7404 31.0101 59.6745 31.1664C59.6085 31.3228 59.4561 31.4242 59.2877 31.4242H47.513C47.3446 31.4242 47.1921 31.3228 47.1262 31.1664C47.0602 31.0101 47.093 30.8291 47.2093 30.7064C48.3996 29.4543 49.0548 27.8094 49.0548 26.0747V25.1452C49.0548 23.1704 50.356 21.4966 52.1389 20.9499L52.9797 20.7818C53.1183 20.7683 53.4005 20.7612 53.4005 20.7612C53.5421 20.7612 53.6824 20.7683 53.821 20.7818L54.6618 20.9499C56.4447 21.4966 57.7459 23.1704 57.7459 25.1452Z" fill="white"/>
</g>
<defs>
<clipPath id="clip0_348_241">
<rect width="168" height="50" fill="white"/>
</clipPath>
</defs>
</svg>
