<svg width="49" height="48" viewBox="0 0 49 48" fill="none" xmlns="http://www.w3.org/2000/svg">
<mask id="path-1-inside-1_1127_4165" fill="white">
<path d="M34.0524 15.1008C35.0124 16.0176 33.6972 17.5488 32.6748 16.632L25.9404 10.7136C25.5478 10.3523 25.0339 10.1518 24.5004 10.1518C23.9669 10.1518 23.4529 10.3523 23.0604 10.7136L10.8924 21.4752C10.6358 21.6819 10.4326 21.9471 10.2998 22.2487C10.167 22.5502 10.1085 22.8792 10.1292 23.208V41.2128C10.1209 41.5079 10.1712 41.8017 10.2773 42.0773C10.3833 42.3528 10.543 42.6045 10.747 42.8179C10.951 43.0313 11.1953 43.2021 11.4658 43.3204C11.7363 43.4387 12.0276 43.5022 12.3228 43.5072H40.7868C40.8522 43.5111 40.9177 43.5016 40.9793 43.4793C41.0409 43.4569 41.0973 43.4222 41.145 43.3772C41.1926 43.3322 41.2306 43.278 41.2565 43.2178C41.2824 43.1576 41.2957 43.0927 41.2956 43.0272V34.6848C41.2955 34.0522 41.5066 33.4378 41.8952 32.9387C42.2839 32.4396 42.8279 32.0845 43.4412 31.9296C43.6956 31.8288 44.1036 31.5744 44.0508 31.2192L43.0908 20.9136C43.0428 20.5056 42.4812 20.304 42.0732 20.304H36.198C35.838 20.304 35.238 20.5056 35.238 20.9136L34.2588 31.2C34.206 31.5552 34.566 31.8096 34.8684 31.9104C35.4817 32.0653 36.0257 32.4204 36.4143 32.9195C36.803 33.4186 37.014 34.033 37.014 34.6656V40.7568C37.014 42.0816 34.974 42.0816 34.974 40.7568V34.6848C34.9744 34.4982 34.907 34.3179 34.7842 34.1775C34.6614 34.037 34.4917 33.9461 34.3068 33.9216C33.0828 33.5616 32.0652 32.3904 32.2188 31.0416L33.1788 20.736C33.2796 19.2048 34.758 18.1872 36.1884 18.1872H42.0636C42.8038 18.1597 43.5279 18.4074 44.0962 18.8826C44.6644 19.3577 45.0364 20.0266 45.1404 20.76L46.1004 31.0656C46.1302 31.7188 45.9333 32.3623 45.5432 32.8871C45.1531 33.4119 44.5937 33.7858 43.9596 33.9456C43.7852 33.9823 43.629 34.0785 43.5178 34.2178C43.4066 34.357 43.3473 34.5306 43.35 34.7088V43.0512C43.3474 43.7289 43.0761 44.3779 42.5956 44.8557C42.115 45.3336 41.4645 45.6013 40.7868 45.6H12.3228C11.7526 45.5956 11.1889 45.4784 10.6643 45.2551C10.1396 45.0319 9.66434 44.707 9.26586 44.2991C8.86739 43.8913 8.5536 43.4086 8.34258 42.8789C8.13156 42.3492 8.0275 41.7829 8.03638 41.2128V23.208C8.02651 22.5885 8.15395 21.9746 8.40957 21.4102C8.66519 20.8459 9.04263 20.3451 9.51478 19.944L21.7068 9.18238C22.473 8.48147 23.4739 8.09277 24.5124 8.09277C25.5509 8.09277 26.5517 8.48147 27.318 9.18238L34.0524 15.1008ZM17.4732 23.7696H23.4444C24.1437 23.7831 24.8105 24.0673 25.3046 24.5623C25.7987 25.0573 26.0817 25.7247 26.094 26.424V31.5744C26.0817 32.2732 25.7985 32.94 25.3043 33.4343C24.81 33.9285 24.1432 34.2117 23.4444 34.224H17.4732C16.7663 34.2217 16.0882 33.9434 15.5834 33.4485C15.0786 32.9536 14.787 32.2811 14.7708 31.5744V26.424C14.7739 26.0722 14.8463 25.7246 14.9838 25.4008C15.1213 25.0771 15.3213 24.7836 15.5722 24.5371C15.8232 24.2906 16.1202 24.0959 16.4464 23.9643C16.7725 23.8326 17.1214 23.7664 17.4732 23.7696ZM23.4444 25.8096H17.4732C17.3115 25.8121 17.1571 25.8778 17.0432 25.9926C16.9293 26.1074 16.8648 26.2622 16.8636 26.424V31.5744C16.8648 31.7357 16.9295 31.89 17.0435 32.004C17.1576 32.1181 17.3119 32.1827 17.4732 32.184H23.4444C23.6024 32.1728 23.751 32.105 23.863 31.993C23.975 31.881 24.0428 31.7324 24.054 31.5744V26.424C24.0429 26.2655 23.9753 26.1162 23.8634 26.0035C23.7515 25.8907 23.6028 25.8219 23.4444 25.8096ZM39.1548 8.11199C39.716 8.09297 40.2754 8.1871 40.7995 8.38876C41.3237 8.59043 41.8019 8.89551 42.2056 9.28583C42.6094 9.67615 42.9305 10.1437 43.1498 10.6607C43.3691 11.1777 43.4821 11.7336 43.4821 12.2952C43.4821 12.8568 43.3691 13.4126 43.1498 13.9296C42.9305 14.4466 42.6094 14.9142 42.2056 15.3045C41.8019 15.6949 41.3237 15.9999 40.7995 16.2016C40.2754 16.4033 39.716 16.4974 39.1548 16.4784C38.0699 16.4416 37.0416 15.9848 36.2871 15.2043C35.5327 14.4238 35.1109 13.3807 35.1109 12.2952C35.1109 11.2096 35.5327 10.1665 36.2871 9.38606C37.0416 8.60557 38.0699 8.14874 39.1548 8.11199ZM39.1548 10.152C38.7302 10.152 38.3152 10.2779 37.9622 10.5139C37.6093 10.7499 37.3343 11.0853 37.172 11.4776C37.0098 11.8699 36.9676 12.3016 37.0508 12.7179C37.1339 13.1343 37.3388 13.5166 37.6393 13.8165C37.9399 14.1163 38.3226 14.3203 38.7391 14.4025C39.1557 14.4848 39.5872 14.4416 39.9792 14.2785C40.3712 14.1153 40.7059 13.8396 40.9411 13.4861C41.1763 13.1326 41.3013 12.7173 41.3004 12.2928C41.2966 11.7262 41.0698 11.1838 40.6692 10.7832C40.2685 10.3825 39.7262 10.1558 39.1596 10.152H39.1548ZM33.6972 8.98078C34.7148 9.84478 33.3372 11.3808 32.3196 10.5072L25.9932 5.00159C25.5786 4.65475 25.0553 4.46472 24.5148 4.46472C23.9743 4.46472 23.451 4.65475 23.0364 5.00159L15.942 11.1744C15.7875 11.3034 15.5994 11.3855 15.3998 11.4112C15.2001 11.4368 14.9973 11.4049 14.8153 11.3192C14.6332 11.2334 14.4794 11.0974 14.372 10.9272C14.2647 10.757 14.2082 10.5596 14.2092 10.3584V8.31839C14.2098 8.26463 14.1997 8.21128 14.1794 8.16149C14.1592 8.1117 14.1291 8.06647 14.0911 8.02845C14.0531 7.99044 14.0079 7.96041 13.9581 7.94013C13.9083 7.91985 13.8549 7.90974 13.8012 7.91039H10.5372C10.4834 7.90974 10.4301 7.91985 10.3803 7.94013C10.3305 7.96041 10.2853 7.99044 10.2472 8.02845C10.2092 8.06647 10.1792 8.1117 10.1589 8.16149C10.1387 8.21128 10.1285 8.26463 10.1292 8.31839V15.7632C10.0988 16.0763 9.9534 16.367 9.72118 16.5792L4.61878 20.9664C4.51765 21.0621 4.39779 21.1357 4.26677 21.1828C4.13575 21.2298 3.9964 21.2493 3.8575 21.2398C3.71861 21.2303 3.58319 21.1922 3.45976 21.1278C3.33634 21.0634 3.22759 20.9741 3.14038 20.8656C2.96677 20.6595 2.8802 20.394 2.89902 20.1252C2.91783 19.8564 3.04055 19.6055 3.24118 19.4256L7.88278 15.3984C7.93104 15.3632 7.97016 15.3169 7.99689 15.2634C8.02361 15.21 8.03715 15.1509 8.03638 15.0912V7.70398C8.04384 7.21918 8.24007 6.7564 8.58337 6.414C8.92667 6.0716 9.38996 5.87658 9.87478 5.87039H14.4204C14.8517 5.85936 15.2729 6.00198 15.6087 6.27278C15.9446 6.54359 16.1733 6.92495 16.254 7.34879C16.2558 7.42056 16.282 7.48957 16.3283 7.54451C16.3745 7.59946 16.438 7.63707 16.5084 7.65119C16.574 7.68264 16.6471 7.69483 16.7193 7.68633C16.7916 7.67784 16.8599 7.649 16.9164 7.60319L21.6636 3.47039C22.4449 2.78095 23.4511 2.40051 24.4932 2.40051C25.5352 2.40051 26.5414 2.78095 27.3228 3.47039L33.6972 8.98078Z"/>
</mask>
<path d="M34.0524 15.1008C35.0124 16.0176 33.6972 17.5488 32.6748 16.632L25.9404 10.7136C25.5478 10.3523 25.0339 10.1518 24.5004 10.1518C23.9669 10.1518 23.4529 10.3523 23.0604 10.7136L10.8924 21.4752C10.6358 21.6819 10.4326 21.9471 10.2998 22.2487C10.167 22.5502 10.1085 22.8792 10.1292 23.208V41.2128C10.1209 41.5079 10.1712 41.8017 10.2773 42.0773C10.3833 42.3528 10.543 42.6045 10.747 42.8179C10.951 43.0313 11.1953 43.2021 11.4658 43.3204C11.7363 43.4387 12.0276 43.5022 12.3228 43.5072H40.7868C40.8522 43.5111 40.9177 43.5016 40.9793 43.4793C41.0409 43.4569 41.0973 43.4222 41.145 43.3772C41.1926 43.3322 41.2306 43.278 41.2565 43.2178C41.2824 43.1576 41.2957 43.0927 41.2956 43.0272V34.6848C41.2955 34.0522 41.5066 33.4378 41.8952 32.9387C42.2839 32.4396 42.8279 32.0845 43.4412 31.9296C43.6956 31.8288 44.1036 31.5744 44.0508 31.2192L43.0908 20.9136C43.0428 20.5056 42.4812 20.304 42.0732 20.304H36.198C35.838 20.304 35.238 20.5056 35.238 20.9136L34.2588 31.2C34.206 31.5552 34.566 31.8096 34.8684 31.9104C35.4817 32.0653 36.0257 32.4204 36.4143 32.9195C36.803 33.4186 37.014 34.033 37.014 34.6656V40.7568C37.014 42.0816 34.974 42.0816 34.974 40.7568V34.6848C34.9744 34.4982 34.907 34.3179 34.7842 34.1775C34.6614 34.037 34.4917 33.9461 34.3068 33.9216C33.0828 33.5616 32.0652 32.3904 32.2188 31.0416L33.1788 20.736C33.2796 19.2048 34.758 18.1872 36.1884 18.1872H42.0636C42.8038 18.1597 43.5279 18.4074 44.0962 18.8826C44.6644 19.3577 45.0364 20.0266 45.1404 20.76L46.1004 31.0656C46.1302 31.7188 45.9333 32.3623 45.5432 32.8871C45.1531 33.4119 44.5937 33.7858 43.9596 33.9456C43.7852 33.9823 43.629 34.0785 43.5178 34.2178C43.4066 34.357 43.3473 34.5306 43.35 34.7088V43.0512C43.3474 43.7289 43.0761 44.3779 42.5956 44.8557C42.115 45.3336 41.4645 45.6013 40.7868 45.6H12.3228C11.7526 45.5956 11.1889 45.4784 10.6643 45.2551C10.1396 45.0319 9.66434 44.707 9.26586 44.2991C8.86739 43.8913 8.5536 43.4086 8.34258 42.8789C8.13156 42.3492 8.0275 41.7829 8.03638 41.2128V23.208C8.02651 22.5885 8.15395 21.9746 8.40957 21.4102C8.66519 20.8459 9.04263 20.3451 9.51478 19.944L21.7068 9.18238C22.473 8.48147 23.4739 8.09277 24.5124 8.09277C25.5509 8.09277 26.5517 8.48147 27.318 9.18238L34.0524 15.1008ZM17.4732 23.7696H23.4444C24.1437 23.7831 24.8105 24.0673 25.3046 24.5623C25.7987 25.0573 26.0817 25.7247 26.094 26.424V31.5744C26.0817 32.2732 25.7985 32.94 25.3043 33.4343C24.81 33.9285 24.1432 34.2117 23.4444 34.224H17.4732C16.7663 34.2217 16.0882 33.9434 15.5834 33.4485C15.0786 32.9536 14.787 32.2811 14.7708 31.5744V26.424C14.7739 26.0722 14.8463 25.7246 14.9838 25.4008C15.1213 25.0771 15.3213 24.7836 15.5722 24.5371C15.8232 24.2906 16.1202 24.0959 16.4464 23.9643C16.7725 23.8326 17.1214 23.7664 17.4732 23.7696ZM23.4444 25.8096H17.4732C17.3115 25.8121 17.1571 25.8778 17.0432 25.9926C16.9293 26.1074 16.8648 26.2622 16.8636 26.424V31.5744C16.8648 31.7357 16.9295 31.89 17.0435 32.004C17.1576 32.1181 17.3119 32.1827 17.4732 32.184H23.4444C23.6024 32.1728 23.751 32.105 23.863 31.993C23.975 31.881 24.0428 31.7324 24.054 31.5744V26.424C24.0429 26.2655 23.9753 26.1162 23.8634 26.0035C23.7515 25.8907 23.6028 25.8219 23.4444 25.8096ZM39.1548 8.11199C39.716 8.09297 40.2754 8.1871 40.7995 8.38876C41.3237 8.59043 41.8019 8.89551 42.2056 9.28583C42.6094 9.67615 42.9305 10.1437 43.1498 10.6607C43.3691 11.1777 43.4821 11.7336 43.4821 12.2952C43.4821 12.8568 43.3691 13.4126 43.1498 13.9296C42.9305 14.4466 42.6094 14.9142 42.2056 15.3045C41.8019 15.6949 41.3237 15.9999 40.7995 16.2016C40.2754 16.4033 39.716 16.4974 39.1548 16.4784C38.0699 16.4416 37.0416 15.9848 36.2871 15.2043C35.5327 14.4238 35.1109 13.3807 35.1109 12.2952C35.1109 11.2096 35.5327 10.1665 36.2871 9.38606C37.0416 8.60557 38.0699 8.14874 39.1548 8.11199ZM39.1548 10.152C38.7302 10.152 38.3152 10.2779 37.9622 10.5139C37.6093 10.7499 37.3343 11.0853 37.172 11.4776C37.0098 11.8699 36.9676 12.3016 37.0508 12.7179C37.1339 13.1343 37.3388 13.5166 37.6393 13.8165C37.9399 14.1163 38.3226 14.3203 38.7391 14.4025C39.1557 14.4848 39.5872 14.4416 39.9792 14.2785C40.3712 14.1153 40.7059 13.8396 40.9411 13.4861C41.1763 13.1326 41.3013 12.7173 41.3004 12.2928C41.2966 11.7262 41.0698 11.1838 40.6692 10.7832C40.2685 10.3825 39.7262 10.1558 39.1596 10.152H39.1548ZM33.6972 8.98078C34.7148 9.84478 33.3372 11.3808 32.3196 10.5072L25.9932 5.00159C25.5786 4.65475 25.0553 4.46472 24.5148 4.46472C23.9743 4.46472 23.451 4.65475 23.0364 5.00159L15.942 11.1744C15.7875 11.3034 15.5994 11.3855 15.3998 11.4112C15.2001 11.4368 14.9973 11.4049 14.8153 11.3192C14.6332 11.2334 14.4794 11.0974 14.372 10.9272C14.2647 10.757 14.2082 10.5596 14.2092 10.3584V8.31839C14.2098 8.26463 14.1997 8.21128 14.1794 8.16149C14.1592 8.1117 14.1291 8.06647 14.0911 8.02845C14.0531 7.99044 14.0079 7.96041 13.9581 7.94013C13.9083 7.91985 13.8549 7.90974 13.8012 7.91039H10.5372C10.4834 7.90974 10.4301 7.91985 10.3803 7.94013C10.3305 7.96041 10.2853 7.99044 10.2472 8.02845C10.2092 8.06647 10.1792 8.1117 10.1589 8.16149C10.1387 8.21128 10.1285 8.26463 10.1292 8.31839V15.7632C10.0988 16.0763 9.9534 16.367 9.72118 16.5792L4.61878 20.9664C4.51765 21.0621 4.39779 21.1357 4.26677 21.1828C4.13575 21.2298 3.9964 21.2493 3.8575 21.2398C3.71861 21.2303 3.58319 21.1922 3.45976 21.1278C3.33634 21.0634 3.22759 20.9741 3.14038 20.8656C2.96677 20.6595 2.8802 20.394 2.89902 20.1252C2.91783 19.8564 3.04055 19.6055 3.24118 19.4256L7.88278 15.3984C7.93104 15.3632 7.97016 15.3169 7.99689 15.2634C8.02361 15.21 8.03715 15.1509 8.03638 15.0912V7.70398C8.04384 7.21918 8.24007 6.7564 8.58337 6.414C8.92667 6.0716 9.38996 5.87658 9.87478 5.87039H14.4204C14.8517 5.85936 15.2729 6.00198 15.6087 6.27278C15.9446 6.54359 16.1733 6.92495 16.254 7.34879C16.2558 7.42056 16.282 7.48957 16.3283 7.54451C16.3745 7.59946 16.438 7.63707 16.5084 7.65119C16.574 7.68264 16.6471 7.69483 16.7193 7.68633C16.7916 7.67784 16.8599 7.649 16.9164 7.60319L21.6636 3.47039C22.4449 2.78095 23.4511 2.40051 24.4932 2.40051C25.5352 2.40051 26.5414 2.78095 27.3228 3.47039L33.6972 8.98078Z" fill="#444444" stroke="#F3F3F3" stroke-width="0.2" mask="url(#path-1-inside-1_1127_4165)"/>
</svg>
