<svg width="49" height="48" viewBox="0 0 49 48" fill="none" xmlns="http://www.w3.org/2000/svg">
<path d="M45.4565 30.6795L41.3802 25.6965L44.75 23.6745V23.25C44.75 21.1432 43.2418 19.3628 41.1643 19.017L40.9663 18.984L41.0713 18.5107L40.7803 18.2197C40.6048 18.0435 39.0103 16.5 37.25 16.5C36.0252 16.5 34.892 17.2425 34.25 17.7562V6C34.25 3.93225 32.5677 2.25 30.5 2.25H24.362C24.0515 1.37925 23.2265 0.75 22.25 0.75H13.25C12.2735 0.75 11.4485 1.37925 11.138 2.25H5C2.93225 2.25 1.25 3.93225 1.25 6V40.5C1.25 42.5677 2.93225 44.25 5 44.25H29.702C31.541 46.101 34.0865 47.25 36.896 47.25H37.604C43.199 47.25 47.75 42.699 47.75 37.104C47.75 34.7685 46.9355 32.487 45.4565 30.6795ZM40.9175 20.4967C42.1333 20.6993 43.049 21.6562 43.2207 22.8428L40.0423 24.75H39.6845L40.64 20.4503L40.9175 20.4967ZM37.25 18C38.0262 18 38.9157 18.5948 39.4227 19.0148L38.1485 24.75H36.3515L35.0773 19.0148C35.5843 18.5948 36.4738 18 37.25 18ZM27.1123 39.75H5.75V6.75H29.75V23.25V23.6745V29.8155L29.0435 30.6787C27.5645 32.487 26.75 34.7685 26.75 37.104C26.75 38.0205 26.8835 38.9048 27.1123 39.75ZM31.25 24.5745L33.1198 25.6965L31.25 27.9825V24.5745ZM34.4577 24.75L31.2793 22.8428C31.451 21.6555 32.3675 20.6993 33.5825 20.4967L33.8592 20.4503L34.8155 24.75H34.4577ZM32.75 6V19.1693C32.189 19.3455 31.6805 19.623 31.25 19.9913V6.75C31.25 5.92275 30.5772 5.25 29.75 5.25H24.5V3.75H30.5C31.7405 3.75 32.75 4.7595 32.75 6ZM13.25 2.25H22.25C22.6632 2.25 23 2.58675 23 3V5.25H12.5V3C12.5 2.58675 12.8368 2.25 13.25 2.25ZM5 42.75C3.7595 42.75 2.75 41.7405 2.75 40.5V6C2.75 4.7595 3.7595 3.75 5 3.75H11V5.25H5.75C4.92275 5.25 4.25 5.92275 4.25 6.75V39.75C4.25 40.5773 4.92275 41.25 5.75 41.25H27.6455C27.881 41.7735 28.154 42.2775 28.4712 42.75H5ZM37.604 45.75H36.896C32.1283 45.75 28.25 41.8717 28.25 37.104C28.25 35.1135 28.9437 33.1695 30.2045 31.629L34.6055 26.25H39.8945L44.2955 31.629C45.5563 33.1695 46.25 35.1135 46.25 37.104C46.25 41.8717 42.3717 45.75 37.604 45.75Z" fill="#444444"/>
<path d="M41 36C39.7595 36 38.75 37.0095 38.75 38.25C38.75 39.4905 39.7595 40.5 41 40.5C42.2405 40.5 43.25 39.4905 43.25 38.25C43.25 37.0095 42.2405 36 41 36ZM41 39C40.5868 39 40.25 38.6632 40.25 38.25C40.25 37.8368 40.5868 37.5 41 37.5C41.4132 37.5 41.75 37.8368 41.75 38.25C41.75 38.6632 41.4132 39 41 39Z" fill="#444444"/>
<path d="M35.75 33.75C35.75 32.5095 34.7405 31.5 33.5 31.5C32.2595 31.5 31.25 32.5095 31.25 33.75C31.25 34.9905 32.2595 36 33.5 36C34.7405 36 35.75 34.9905 35.75 33.75ZM33.5 34.5C33.0868 34.5 32.75 34.1632 32.75 33.75C32.75 33.3368 33.0868 33 33.5 33C33.9132 33 34.25 33.3368 34.25 33.75C34.25 34.1632 33.9132 34.5 33.5 34.5Z" fill="#444444"/>
<path d="M35.0312 41.8384L38.0369 29.8405L39.4919 30.205L36.4863 42.2029L35.0312 41.8384Z" fill="#444444"/>
<path d="M26.75 15.75H19.25V9.75H8.75V24.75H7.25V26.25H28.25V24.75H26.75V15.75ZM25.25 24.75H17.75V17.25H25.25V24.75ZM10.25 11.25H17.75V15.75H16.25H14.75V17.25H16.25V18.75H14.75V20.25H16.25V21.75H14.75V23.25H16.25V24.75H10.25V11.25Z" fill="#444444"/>
<path d="M25.25 27.75H28.25V29.25H25.25V27.75Z" fill="#444444"/>
<path d="M13.25 27.75H23.75V29.25H13.25V27.75Z" fill="#444444"/>
<path d="M7.25 27.75H11.75V29.25H7.25V27.75Z" fill="#444444"/>
<path d="M7.25 30.75H25.25V32.25H7.25V30.75Z" fill="#444444"/>
<path d="M7.25 33.75H25.25V35.25H7.25V33.75Z" fill="#444444"/>
<path d="M19.25 18.75H20.75V20.25H19.25V18.75Z" fill="#444444"/>
<path d="M22.25 18.75H23.75V20.25H22.25V18.75Z" fill="#444444"/>
<path d="M19.25 21.75H20.75V23.25H19.25V21.75Z" fill="#444444"/>
<path d="M22.25 21.75H23.75V23.25H22.25V21.75Z" fill="#444444"/>
<path d="M11.75 18.75H13.25V20.25H11.75V18.75Z" fill="#444444"/>
<path d="M11.75 21.75H13.25V23.25H11.75V21.75Z" fill="#444444"/>
<path d="M11.75 12.75H13.25V14.25H11.75V12.75Z" fill="#444444"/>
<path d="M14.75 12.75H16.25V14.25H14.75V12.75Z" fill="#444444"/>
<path d="M11.75 15.75H13.25V17.25H11.75V15.75Z" fill="#444444"/>
</svg>
