<svg width="50" height="50" viewBox="0 0 50 50" fill="none" xmlns="http://www.w3.org/2000/svg">
<path d="M25.4724 1C25.4646 0.950613 25.4645 0.950624 25.4644 0.950646L25.4637 0.950747L25.4612 0.951149L25.4511 0.952747L25.4111 0.959062L25.2552 0.983701L24.663 1.07729L22.5465 1.41196C20.7931 1.68927 18.4511 2.05986 16.0965 2.43297C11.4005 3.17709 6.65123 3.93172 6.42556 3.97586L5.82207 4.05633L5.80031 4.05923L5.78772 4.07721L2.68183 8.51419L2.6728 8.5271V8.54286V9.02644C2.37015 25.9396 7.91083 35.9157 13.5576 41.6887C16.3805 44.5747 19.2287 46.4092 21.3841 47.5349C22.4618 48.0977 23.3663 48.4834 24.0079 48.7347C24.3286 48.8603 24.5836 48.9523 24.7613 49.016L24.798 49.0292C24.8695 49.0548 24.9263 49.0751 24.9679 49.0908C24.9921 49.0999 25.0105 49.1071 25.0233 49.1127C25.0296 49.1155 25.0339 49.1175 25.0366 49.1189C25.0366 49.119 25.0366 49.119 25.0366 49.119L25.0483 49.1307H25.069H25.4724C25.5449 49.1307 25.6994 49.1038 25.9198 49.0487C26.1423 48.993 26.4369 48.9072 26.7924 48.7864C27.5037 48.5449 28.46 48.1634 29.5738 47.6026C31.8016 46.4812 34.6601 44.6428 37.4477 41.7743C42.5797 36.5211 48.6352 26.5452 48.2316 9.02623V8.54286V8.5271L48.2226 8.51419L45.1167 4.07721L45.1047 4.06002L45.084 4.05657L44.6027 3.97636C44.57 3.9673 44.4708 3.94864 44.3191 3.92205C44.1597 3.89408 43.9378 3.85665 43.6625 3.81115C43.112 3.72013 42.3477 3.59674 41.442 3.4521C39.6306 3.1628 37.2532 2.78842 34.8885 2.41783C32.5238 2.04724 30.1717 1.68043 28.4107 1.40627C27.5303 1.26919 26.7976 1.15527 26.285 1.07562L25.6903 0.983237L25.5337 0.958927L25.4936 0.952697L25.4835 0.95112L25.4809 0.950724L25.4803 0.950625C25.4801 0.950602 25.48 0.950591 25.4724 1ZM25.4724 1L25.4646 0.950613L25.4723 0.949391L25.48 0.950591L25.4724 1ZM25.4755 46.95C21.5247 46.4496 4.15337 38.2722 4.54978 9.51633L7.02949 6.04473C7.32079 5.98091 7.72284 5.88689 8.21793 5.7711C11.5516 4.99146 19.1039 3.2252 25.4724 3.05002C32.1498 3.2337 40.2756 5.16673 43.2624 5.87727C43.5469 5.94494 43.7848 6.00153 43.9703 6.04446L46.4505 9.51678C46.9467 24.2466 42.5765 33.6045 37.6463 39.2797C35.1799 42.1187 32.5727 44.0369 30.3628 45.2452C28.1534 46.4532 26.3462 46.9488 25.4755 46.95Z" fill="#444444" stroke="#FF6600" stroke-width="0.1"/>
<path d="M35 22.5H18V24.5H35V22.5Z" fill="#444444"/>
<path d="M34.4991 31H20.252L21.5 33H34.4991V31Z" fill="#444444"/>
<path d="M35 14H18V16H35V14Z" fill="#444444"/>
<path d="M18.5255 26.8571C16.9121 26.8571 15 25.8571 15 23.4454C15 21.3571 16.7911 19.8571 18.5255 19.8571H26.5928V18H18.5255C15.5003 18 13.2012 20.4202 13.2012 23.4454C13.2012 26.4706 15.6213 28.8908 18.5255 28.8908H26.5928V26.8571H18.5255Z" fill="#444444"/>
<path d="M5.45441 31.2179C9.32253 28.3108 14.8406 28.6183 18.3619 32.1386C22.2187 35.9964 22.2187 42.2505 18.3619 46.1073C14.504 49.9642 8.24994 49.9642 4.39316 46.1073C0.872848 42.587 0.56441 37.0708 3.4716 33.2017" fill="#F3F3F3"/>
<path d="M5.45441 31.2179C9.32253 28.3108 14.8406 28.6183 18.3619 32.1386C22.2187 35.9964 22.2187 42.2505 18.3619 46.1073C14.504 49.9642 8.24994 49.9642 4.39316 46.1073C0.872848 42.587 0.56441 37.0708 3.4716 33.2017" stroke="#444444" stroke-width="1.64" stroke-miterlimit="10" stroke-linecap="round" stroke-linejoin="round"/>
<path d="M7.8907 42.9999C7.81343 42.9999 7.73789 42.977 7.67364 42.9341C7.60939 42.8912 7.55931 42.8302 7.52974 42.7588C7.50017 42.6874 7.49243 42.6089 7.50751 42.5331C7.52259 42.4573 7.5598 42.3877 7.61445 42.3331L14.8332 35.1143C14.9065 35.041 15.0058 34.9999 15.1094 34.9999C15.2131 34.9999 15.3124 35.041 15.3857 35.1143C15.459 35.1876 15.5001 35.2869 15.5001 35.3906C15.5001 35.4942 15.459 35.5935 15.3857 35.6668L8.16695 42.8856C8.1307 42.9219 8.08764 42.9507 8.04023 42.9703C7.99283 42.9899 7.94201 43 7.8907 42.9999Z" fill="#444444"/>
<path d="M15.1094 42.9999C15.0581 43 15.0073 42.9899 14.9599 42.9703C14.9125 42.9507 14.8694 42.9219 14.8332 42.8856L7.61443 35.6668C7.54116 35.5935 7.5 35.4942 7.5 35.3906C7.5 35.2869 7.54116 35.1876 7.61443 35.1143C7.68769 35.041 7.78706 34.9999 7.89068 34.9999C7.99429 34.9999 8.09366 35.041 8.16693 35.1143L15.3857 42.3331C15.4403 42.3877 15.4775 42.4573 15.4926 42.5331C15.5077 42.6089 15.5 42.6874 15.4704 42.7588C15.4408 42.8302 15.3907 42.8912 15.3265 42.9341C15.2622 42.977 15.1867 42.9999 15.1094 42.9999Z" fill="#444444"/>
</svg>
