<svg width="49" height="48" viewBox="0 0 49 48" fill="none" xmlns="http://www.w3.org/2000/svg">
<g clip-path="url(#clip0_1127_4153)">
<path d="M13.6617 16.2581C13.6617 16.6856 13.315 17.0323 12.8875 17.0323C12.4599 17.0323 12.1133 16.6856 12.1133 16.2581C12.1133 15.8305 12.4599 15.4839 12.8875 15.4839C13.315 15.4839 13.6617 15.8305 13.6617 16.2581Z" fill="#444444"/>
<path d="M21.4039 16.2581C21.4039 16.6856 21.0572 17.0323 20.6297 17.0323C20.2021 17.0323 19.8555 16.6856 19.8555 16.2581C19.8555 15.8305 20.2021 15.4839 20.6297 15.4839C21.0572 15.4839 21.4039 15.8305 21.4039 16.2581Z" fill="#444444"/>
<path d="M19.8557 20.9032H18.3073C18.3073 21.7572 17.6128 22.4516 16.7589 22.4516C15.9049 22.4516 15.2105 21.7572 15.2105 20.9032H13.6621C13.6621 22.6111 15.051 24 16.7589 24C18.4668 24 19.8557 22.6111 19.8557 20.9032Z" fill="#444444"/>
<path d="M48.5 33.62L46.1774 32.2651V20.129H48.3987L44.2699 13.9355H32.6026L28.4738 20.129H30.6936V31.4206C30.2702 31.1258 29.8056 30.888 29.3107 30.7232L21.4032 28.0868V26.4829C23.1142 25.3643 24.3945 23.6469 24.9559 21.6309C26.8736 21.4026 28.371 19.7847 28.371 17.8065V11.6129C28.371 5.20955 23.1614 0 16.7581 0C10.3547 0 5.14516 5.20955 5.14516 11.6129V17.8065C5.14516 19.7847 6.64252 21.4026 8.56023 21.6309C9.12047 23.6477 10.402 25.3643 12.1129 26.4829V28.0868L4.20615 30.7239C1.98866 31.4618 0.5 33.5281 0.5 35.8639V42.5807H22.1774V48H46.9516V35.6129H48.5V33.62ZM38.4355 29.5411L46.1891 34.0645H30.6818L38.4355 29.5411ZM33.4304 15.4839H43.4405L45.5053 18.5806H31.3664L33.4304 15.4839ZM44.629 20.129V31.3616L38.4355 27.7492L32.2419 31.3616V20.129H44.629ZM22.5721 30.1093L20.3799 35.0432L17.8528 32.5161L20.8381 29.5309L22.5721 30.1093ZM25.2417 19.9967C25.2579 19.7839 25.2742 19.5714 25.2742 19.3548V15.6264C26.1739 15.947 26.8226 16.7986 26.8226 17.8065C26.8226 18.826 26.1576 19.6852 25.2417 19.9967ZM6.69355 17.8065C6.69355 16.7986 7.34299 15.947 8.24194 15.6264V19.3548C8.24194 19.5714 8.25819 19.7839 8.27445 19.9967C7.35849 19.6852 6.69355 18.826 6.69355 17.8065ZM8.24194 10.6229V14.0137C7.66658 14.1313 7.14567 14.3868 6.69355 14.729V11.6129C6.69355 6.06351 11.2087 1.54839 16.7581 1.54839C22.3075 1.54839 26.8226 6.06351 26.8226 11.6129V14.7297C26.3705 14.3876 25.8496 14.1313 25.2742 14.0145V10.6236L24.3133 10.8625C24.2826 10.869 21.2399 11.6129 16.7581 11.6129C12.2762 11.6129 9.23349 10.869 9.20363 10.861L8.24194 10.6229ZM9.79032 19.3548V12.5644C11.0692 12.8014 13.5437 13.1613 16.7581 13.1613C19.9724 13.1613 22.447 12.8014 23.7258 12.5644V19.3548C23.7258 23.1971 20.5995 26.3226 16.7581 26.3226C12.9166 26.3226 9.79032 23.1971 9.79032 19.3548ZM16.7581 27.871C17.8513 27.871 18.8931 27.6566 19.8548 27.2794V28.3246L16.7581 31.4214L13.6613 28.3246V27.2794C14.623 27.6566 15.6648 27.871 16.7581 27.871ZM12.6781 29.5309L15.6633 32.5161L13.1362 35.0432L10.9441 30.1093L12.6781 29.5309ZM2.04839 35.8639C2.04839 34.1953 3.11215 32.7191 4.69531 32.1918L9.46825 30.6007L12.638 37.731L15.9839 34.3851V41.0323H2.04839V35.8639ZM17.5323 41.0323V34.3851L20.8782 37.731L24.0479 30.6007L28.8216 32.1925C29.2026 32.3196 29.5546 32.5086 29.8751 32.7422L28.371 33.62V35.6129H29.9194V37.3594L22.1774 39.682V41.0323H17.5323ZM23.7258 40.8342L29.9194 38.9762V41.8065H25.2742V46.4516H23.7258V40.8342ZM26.8226 46.4516V43.3548H29.9194V46.4516H26.8226ZM40.7581 46.4516H36.1129V40.2581H40.7581V46.4516ZM45.4032 46.4516H42.3065V38.7097H34.5645V46.4516H31.4677V35.6129H45.4032V46.4516Z" fill="#444444"/>
<path d="M43.0813 26.3226V21.6774H33.791V26.3226H43.0813ZM35.3394 23.2258H41.533V24.7742H35.3394V23.2258Z" fill="#444444"/>
</g>
<defs>
<clipPath id="clip0_1127_4153">
<rect width="48" height="48" fill="white" transform="translate(0.5)"/>
</clipPath>
</defs>
</svg>
