<svg width="32" height="33" viewBox="0 0 32 33" fill="none" xmlns="http://www.w3.org/2000/svg">
<rect y="0.58374" width="32" height="32" rx="6" fill="#FF6600"/>
<path d="M23.1426 22.1251V22.9593H8.14258V22.1251L9.80924 20.4569V15.4521C9.80924 12.8663 11.5009 10.5891 13.9759 9.85507V9.61318C13.9759 9.17073 14.1515 8.7464 14.4641 8.43354C14.7766 8.12068 15.2006 7.94492 15.6426 7.94492C16.0846 7.94492 16.5085 8.12068 16.8211 8.43354C17.1336 8.7464 17.3092 9.17073 17.3092 9.61318V9.85507C19.7842 10.5891 21.4759 12.8663 21.4759 15.4521V20.4569L23.1426 22.1251ZM17.3092 23.7934C17.3092 24.2358 17.1336 24.6602 16.8211 24.973C16.5085 25.2859 16.0846 25.4617 15.6426 25.4617C15.2006 25.4617 14.7766 25.2859 14.4641 24.973C14.1515 24.6602 13.9759 24.2358 13.9759 23.7934" fill="white"/>
</svg>
