<svg width="32" height="33" viewBox="0 0 32 33" fill="none" xmlns="http://www.w3.org/2000/svg">
<rect y="0.281357" width="31.369" height="31.369" rx="6.27381" fill="#FF6600"/>
<g clip-path="url(#clip0_1127_3353)">
<path d="M16.9217 15.0693L12.7551 12.0914C12.1717 11.6744 11.3967 11.6744 10.8217 12.0914L6.65508 15.0693C6.21341 15.3862 5.95508 15.8867 5.95508 16.4289V23.0769C5.95508 23.5357 6.33008 23.911 6.78841 23.911H10.1217V18.9063H13.4551V23.911H16.7884C17.2467 23.911 17.6217 23.5357 17.6217 23.0769V16.4289C17.6217 15.8867 17.3634 15.3862 16.9217 15.0693Z" fill="white"/>
<path d="M22.6467 8.89668H15.0967C14.1884 8.89668 13.4551 9.63072 13.4551 10.5399L13.5301 10.615C13.5967 10.6567 13.6634 10.6901 13.7301 10.7318L17.8967 13.7096C18.5301 14.16 18.9801 14.8274 19.1801 15.5697H20.9551V17.238H19.2884V18.9062H20.9551V20.5745H19.2884V23.911H22.6467C23.5551 23.911 24.2884 23.177 24.2884 22.2678V10.5399C24.2884 9.63072 23.5551 8.89668 22.6467 8.89668ZM20.9551 13.9015H19.2884V12.2332H20.9551V13.9015Z" fill="white"/>
</g>
<defs>
<clipPath id="clip0_1127_3353">
<rect width="20" height="20.0191" fill="white" transform="translate(5.12109 6.39429)"/>
</clipPath>
</defs>
</svg>
