<svg width="185" height="24" viewBox="0 0 185 24" fill="none" xmlns="http://www.w3.org/2000/svg">
<path fill-rule="evenodd" clip-rule="evenodd" d="M139.475 0.0960894C113.466 0.368923 106.029 0.546407 91.598 1.23923C76.6429 1.95722 65.9402 2.67692 48.9585 4.10657C45.0218 4.43799 40.8066 4.75252 35.865 5.08348C17.7123 6.29923 14.1799 6.62319 8.31156 7.60998C5.404 8.09902 2.88946 8.43744 1.48014 8.52969C0.227145 8.6116 0 8.66318 0 8.86571C0 9.04468 2.004 9.20149 3.1001 9.10821C3.49291 9.0749 4.55713 8.99322 5.46514 8.92694C6.37315 8.86054 8.37134 8.68236 9.90556 8.53095C13.5184 8.17426 15.253 8.06179 21.462 7.78161C31.9001 7.31061 39.7853 6.85799 49.4709 6.1739C53.0403 5.92174 57.7796 5.587 60.0027 5.42996C76.8631 4.2388 97.4581 3.17664 110.043 2.84935C125.315 2.45199 172.725 2.1007 171.924 2.39065C171.607 2.50564 166.182 3.3609 162.929 3.80869C159.942 4.22007 154.951 4.81341 148.811 5.48705C145.899 5.80664 141.903 6.24892 139.93 6.46994C132.52 7.30039 130.079 7.55794 125.869 7.95415C106.473 9.77921 93.6613 11.3696 75.8288 14.1655C65.2293 15.8273 56.5414 17.735 46.846 20.5299C41.3337 22.1189 40.7967 22.4011 41.3392 23.4241C41.6923 24.0897 44.4736 24.176 50.0833 23.6952C60.3351 22.8168 69.9689 22.1354 79.3014 21.6288C85.1553 21.3111 85.9306 21.2578 91.8826 20.7645C94.1057 20.5803 97.9484 20.311 100.422 20.1663L104.919 19.9031L98.9418 19.7994C89.8839 19.6421 80.1673 19.6517 76.9674 19.821C66.3732 20.3816 60.6109 20.8131 51.1987 21.7503C48.9552 21.9738 47.0626 22.1374 46.9927 22.1139C46.3186 21.8872 61.4055 18.4608 68.6027 17.2061C84.8497 14.3736 101.581 12.2602 127.292 9.79242C129.64 9.56703 134.354 9.07398 137.767 8.69684C141.18 8.31958 146.56 7.72566 149.722 7.37678C161.894 6.03421 165.52 5.53415 177.218 3.58526C184.711 2.337 184.751 2.32632 184.955 1.5054C185.179 0.602814 184.579 0.193279 182.86 0.0762186C181.226 -0.0350974 150.642 -0.0210854 139.475 0.0960894ZM105.405 19.812C105.546 19.8395 105.751 19.8384 105.86 19.8097C105.969 19.781 105.853 19.7585 105.602 19.7597C105.352 19.761 105.263 19.7846 105.405 19.812Z" fill="#FF6600"/>
</svg>
