<svg width="53" height="52" viewBox="0 0 53 52" fill="none" xmlns="http://www.w3.org/2000/svg">
<path d="M25.3478 14.6523V6.83271C25.3478 6.30326 25.5213 5.86504 25.8683 5.51805C26.2136 5.17268 26.651 5 27.1805 5H38.2989C38.8284 5 39.2666 5.17268 39.6136 5.51805C39.959 5.86504 40.1316 6.30326 40.1316 6.83271V14.6523C40.1316 15.1817 39.959 15.6191 39.6136 15.9645C39.2666 16.3115 38.8284 16.485 38.2989 16.485H27.1805C26.651 16.485 26.2136 16.3115 25.8683 15.9645C25.5213 15.6191 25.3478 15.1817 25.3478 14.6523ZM2.5 21.25V6.83271C2.5 6.30326 2.6735 5.86504 3.02049 5.51805C3.36585 5.17268 3.80326 5 4.33271 5H15.4511C15.9806 5 16.4188 5.17268 16.7658 5.51805C17.1112 5.86504 17.2839 6.30326 17.2839 6.83271V21.25C17.2839 21.7795 17.1112 22.2169 16.7658 22.5622C16.4188 22.9092 15.9806 23.0827 15.4511 23.0827H4.33271C3.80326 23.0827 3.36585 22.9092 3.02049 22.5622C2.6735 22.2169 2.5 21.7795 2.5 21.25ZM2.5 40.7989V32.9794C2.5 32.4499 2.6735 32.0117 3.02049 31.6647C3.36585 31.3193 3.80326 31.1467 4.33271 31.1467H15.4511C15.9806 31.1467 16.4188 31.3193 16.7658 31.6647C17.1112 32.0117 17.2839 32.4499 17.2839 32.9794V40.7989C17.2839 41.3284 17.1112 41.7658 16.7658 42.1111C16.4188 42.4581 15.9806 42.6316 15.4511 42.6316H4.33271C3.80326 42.6316 3.36585 42.4581 3.02049 42.1111C2.6735 41.7658 2.5 41.3284 2.5 40.7989ZM4.21053 21.3722H15.5733V6.71053H4.21053V21.3722ZM27.0583 14.7744H38.4211V6.71053H27.0583V14.7744ZM4.21053 40.9211H15.5733V32.8572H4.21053V40.9211Z" fill="#444444"/>
<path d="M25.3477 26.3817V30.0938L27.0582 28.5001V26.2595H30.7655C32.177 25.7056 35.0999 24.5881 35.4999 24.549H27.1804C26.6509 24.549 26.2135 24.7216 25.8681 25.067C25.5212 25.414 25.3477 25.8522 25.3477 26.3817Z" fill="#444444"/>
<path d="M39.8188 44.8307C41.0327 44.8307 42.0646 44.4032 42.9147 43.5482C43.764 42.6927 44.1887 41.654 44.1887 40.4322C44.1887 39.2103 43.764 38.1717 42.9147 37.3161C42.0646 36.4611 41.0327 36.0337 39.8188 36.0337C38.6049 36.0337 37.573 36.4611 36.7229 37.3161C35.8735 38.1717 35.4489 39.2103 35.4489 40.4322C35.4489 41.654 35.8735 42.6927 36.7229 43.5482C37.573 44.4032 38.6049 44.8307 39.8188 44.8307ZM39.8188 43.0713C39.0905 43.0713 38.4716 42.8145 37.9621 42.301C37.4519 41.7882 37.1968 41.1652 37.1968 40.4322C37.1968 39.6991 37.4519 39.0758 37.9621 38.5623C38.4716 38.0495 39.0905 37.7931 39.8188 37.7931C40.5471 37.7931 41.1664 38.0495 41.6765 38.5623C42.186 39.0758 42.4408 39.6991 42.4408 40.4322C42.4408 41.1652 42.186 41.7882 41.6765 42.301C41.1664 42.8145 40.5471 43.0713 39.8188 43.0713ZM39.8188 47.763C37.4558 47.763 35.3032 47.099 33.361 45.771C31.4188 44.4436 30.0107 42.664 29.1367 40.4322C30.0107 38.2003 31.4188 36.4204 33.361 35.0924C35.3032 33.765 37.4558 33.1013 39.8188 33.1013C42.1818 33.1013 44.3344 33.765 46.2766 35.0924C48.2188 36.4204 49.6269 38.2003 50.5009 40.4322C49.6269 42.664 48.2188 44.4436 46.2766 45.771C44.3344 47.099 42.1818 47.763 39.8188 47.763Z" fill="#FF6600"/>
</svg>
