<svg width="42" height="33" viewBox="0 0 42 33" fill="none" xmlns="http://www.w3.org/2000/svg">
<path d="M20.8188 28.263C17.5539 28.263 14.5156 27.3278 11.8219 25.4862L20.8188 28.263ZM20.8188 28.263C24.0837 28.263 27.122 27.3278 29.8157 25.4862L20.8188 28.263ZM5.94655 18.073C7.14334 21.1292 9.11822 23.6382 11.821 25.4856H29.8166C32.5194 23.6382 34.4943 21.1292 35.691 18.073L36.3336 16.4322L35.691 14.7913C34.4942 11.735 32.5193 9.22577 29.8166 7.37773L29.8157 7.37715C27.1219 5.53608 24.0835 4.60132 20.8188 4.60132C17.5541 4.60132 14.5157 5.53608 11.8219 7.37715L11.821 7.37773C9.11833 9.22577 7.14339 11.735 5.94655 14.7913L5.30398 16.4322L5.94655 18.073Z" fill="#FF6600" stroke="#F1F1F1" stroke-width="9"/>
</svg>
